thinwide.ufo
<glyph name="numbersign" format="1">
  <advance width="883"/>
  <unicode hex="0023"/>
  <outline>
    <contour>
      <point x="60" y="258"/>
      <point x="66" y="280"/>
      <point x="60" y="258" type="curve"/>
      <point x="278" y="258"/>
      <point x="496" y="258"/>
      <point x="715" y="258" type="curve"/>
      <point x="719" y="280"/>
      <point x="715" y="258"/>
      <point x="719" y="280" type="curve"/>
      <point x="501" y="280"/>
      <point x="283" y="280"/>
      <point x="66" y="280" type="curve"/>
    </contour>
    <contour>
      <point x="164" y="472"/>
      <point x="169" y="494"/>
      <point x="164" y="472" type="curve"/>
      <point x="382" y="472"/>
      <point x="600" y="472"/>
      <point x="819" y="472" type="curve"/>
      <point x="823" y="494"/>
      <point x="819" y="472"/>
      <point x="823" y="494" type="curve"/>
      <point x="605" y="494"/>
      <point x="387" y="494"/>
      <point x="169" y="494" type="curve"/>
    </contour>
    <contour>
      <point x="474" y="39"/>
      <point x="450" y="39"/>
      <point x="474" y="39" type="curve"/>
      <point x="474" y="39"/>
      <point x="767" y="722"/>
      <point x="767" y="722" type="curve"/>
      <point x="743" y="722"/>
      <point x="767" y="722"/>
      <point x="743" y="722" type="curve"/>
      <point x="743" y="722"/>
      <point x="450" y="39"/>
      <point x="450" y="39" type="curve"/>
    </contour>
    <contour>
      <point x="150" y="46"/>
      <point x="127" y="46"/>
      <point x="150" y="46" type="curve"/>
      <point x="150" y="46"/>
      <point x="437" y="722"/>
      <point x="437" y="722" type="curve"/>
      <point x="413" y="722"/>
      <point x="437" y="722"/>
      <point x="413" y="722" type="curve"/>
      <point x="413" y="722"/>
      <point x="127" y="46"/>
      <point x="127" y="46" type="curve"/>
    </contour>
  </outline>
</glyph>
<glyph name="percent" format="1">
  <advance width="1123"/>
  <unicode hex="0025"/>
  <outline>
    <contour>
      <point x="666" y="176"/>
      <point x="643" y="176"/>
      <point x="666" y="176" type="curve"/>
      <point x="666" y="281"/>
      <point x="744" y="342"/>
      <point x="853" y="342" type="curve"/>
      <point x="960" y="342"/>
      <point x="1039" y="279"/>
      <point x="1039" y="177" type="curve"/>
      <point x="1039" y="75"/>
      <point x="961" y="10"/>
      <point x="855" y="10" type="curve"/>
      <point x="746" y="10"/>
      <point x="666" y="73"/>
      <point x="666" y="176" type="curve"/>
      <point x="643" y="176"/>
      <point x="666" y="176"/>
      <point x="643" y="176" type="curve"/>
      <point x="643" y="60"/>
      <point x="732" y="-12"/>
      <point x="854" y="-12" type="curve"/>
      <point x="975" y="-12"/>
      <point x="1063" y="60"/>
      <point x="1063" y="178" type="curve"/>
      <point x="1063" y="294"/>
      <point x="973" y="364"/>
      <point x="854" y="364" type="curve"/>
      <point x="729" y="365"/>
      <point x="643" y="295"/>
      <point x="643" y="176" type="curve"/>
    </contour>
    <contour>
      <point x="83" y="674"/>
      <point x="60" y="674"/>
      <point x="83" y="674" type="curve"/>
      <point x="83" y="779"/>
      <point x="161" y="840"/>
      <point x="269" y="840" type="curve"/>
      <point x="377" y="841"/>
      <point x="456" y="777"/>
      <point x="456" y="675" type="curve"/>
      <point x="456" y="573"/>
      <point x="378" y="507"/>
      <point x="272" y="507" type="curve"/>
      <point x="163" y="507"/>
      <point x="83" y="571"/>
      <point x="83" y="674" type="curve"/>
      <point x="60" y="674"/>
      <point x="83" y="674"/>
      <point x="60" y="674" type="curve"/>
      <point x="60" y="557"/>
      <point x="145" y="486"/>
      <point x="271" y="486" type="curve"/>
      <point x="392" y="486"/>
      <point x="480" y="558"/>
      <point x="480" y="676" type="curve"/>
      <point x="480" y="792"/>
      <point x="390" y="862"/>
      <point x="271" y="862" type="curve"/>
      <point x="146" y="862"/>
      <point x="60" y="793"/>
      <point x="60" y="674" type="curve"/>
    </contour>
    <contour>
      <point x="283" y="1"/>
      <point x="259" y="1"/>
      <point x="283" y="1" type="curve"/>
      <point x="474" y="284"/>
      <point x="666" y="568"/>
      <point x="858" y="851" type="curve"/>
      <point x="834" y="851"/>
      <point x="858" y="851"/>
      <point x="834" y="851" type="curve"/>
      <point x="642" y="568"/>
      <point x="450" y="284"/>
      <point x="259" y="1" type="curve"/>
    </contour>
  </outline>
</glyph>
<glyph name="quotesingle" format="1">
  <advance width="144"/>
  <unicode hex="0027"/>
  <outline>
    <contour>
      <point x="84" y="658"/>
      <point x="60" y="658"/>
      <point x="84" y="658" type="curve"/>
      <point x="84" y="721"/>
      <point x="84" y="783"/>
      <point x="84" y="846" type="curve"/>
      <point x="60" y="846"/>
      <point x="84" y="846"/>
      <point x="60" y="846" type="curve"/>
      <point x="60" y="783"/>
      <point x="60" y="721"/>
      <point x="60" y="658" type="curve"/>
    </contour>
  </outline>
</glyph>
<glyph name="parenright" format="1">
  <advance width="482"/>
  <unicode hex="0029"/>
  <outline>
    <contour>
      <point x="74" y="-267"/>
      <point x="60" y="-252"/>
      <point x="74" y="-267" type="curve"/>
      <point x="291" y="-104"/>
      <point x="421" y="57"/>
      <point x="421" y="327" type="curve"/>
      <point x="421" y="591"/>
      <point x="298" y="751"/>
      <point x="80" y="903" type="curve"/>
      <point x="65" y="887"/>
      <point x="80" y="903"/>
      <point x="65" y="887" type="curve"/>
      <point x="274" y="736"/>
      <point x="396" y="582"/>
      <point x="396" y="326" type="curve"/>
      <point x="396" y="65"/>
      <point x="265" y="-89"/>
      <point x="60" y="-252" type="curve"/>
    </contour>
  </outline>
</glyph>
<glyph name="plus" format="1">
  <advance width="895"/>
  <unicode hex="002B"/>
  <outline>
    <contour>
      <point x="60" y="297"/>
      <point x="60" y="321"/>
      <point x="60" y="297" type="curve"/>
      <point x="60" y="297"/>
      <point x="835" y="297"/>
      <point x="835" y="297" type="curve"/>
      <point x="835" y="321"/>
      <point x="835" y="297"/>
      <point x="835" y="321" type="curve"/>
      <point x="835" y="321"/>
      <point x="60" y="321"/>
      <point x="60" y="321" type="curve"/>
    </contour>
    <contour>
      <point x="460" y="18"/>
      <point x="435" y="18"/>
      <point x="460" y="18" type="curve"/>
      <point x="460" y="18"/>
      <point x="460" y="588"/>
      <point x="460" y="588" type="curve"/>
      <point x="435" y="588"/>
      <point x="460" y="588"/>
      <point x="435" y="588" type="curve"/>
      <point x="435" y="588"/>
      <point x="435" y="18"/>
      <point x="435" y="18" type="curve"/>
    </contour>
  </outline>
</glyph>
<glyph name="comma" format="1">
  <advance width="294"/>
  <unicode hex="002C"/>
  <outline>
    <contour>
      <point x="89" y="-99"/>
      <point x="60" y="-99"/>
      <point x="89" y="-99" type="curve"/>
      <point x="137" y="-39"/>
      <point x="185" y="22"/>
      <point x="234" y="82" type="curve"/>
      <point x="201" y="82"/>
      <point x="234" y="82"/>
      <point x="201" y="82" type="curve"/>
      <point x="154" y="22"/>
      <point x="107" y="-39"/>
      <point x="60" y="-99" type="curve"/>
    </contour>
  </outline>
</glyph>
<glyph name="period" format="1">
  <advance width="149"/>
  <unicode hex="002E"/>
  <outline>
    <contour>
      <point x="89" y="18"/>
      <point x="60" y="18"/>
      <point x="89" y="18" type="curve"/>
      <point x="89" y="27"/>
      <point x="82" y="32"/>
      <point x="72" y="32" type="curve"/>
      <point x="64" y="32"/>
      <point x="60" y="26"/>
      <point x="60" y="18" type="curve"/>
      <point x="89" y="18"/>
      <point x="60" y="18"/>
      <point x="89" y="18" type="curve"/>
      <point x="89" y="9"/>
      <point x="82" y="5"/>
      <point x="72" y="5" type="curve"/>
      <point x="64" y="5"/>
      <point x="60" y="10"/>
      <point x="60" y="18" type="curve"/>
    </contour>
  </outline>
</glyph>
<glyph name="semicolon" format="1">
  <advance width="294"/>
  <unicode hex="003B"/>
  <outline>
    <contour>
      <point x="189" y="307"/>
      <point x="161" y="307"/>
      <point x="189" y="307" type="curve"/>
      <point x="189" y="316"/>
      <point x="182" y="321"/>
      <point x="173" y="321" type="curve"/>
      <point x="165" y="321"/>
      <point x="161" y="315"/>
      <point x="161" y="307" type="curve"/>
      <point x="189" y="307"/>
      <point x="161" y="307"/>
      <point x="189" y="307" type="curve"/>
      <point x="189" y="298"/>
      <point x="182" y="294"/>
      <point x="173" y="294" type="curve"/>
      <point x="165" y="294"/>
      <point x="161" y="299"/>
      <point x="161" y="307" type="curve"/>
    </contour>
    <contour>
      <point x="89" y="-99"/>
      <point x="60" y="-99"/>
      <point x="89" y="-99" type="curve"/>
      <point x="137" y="-39"/>
      <point x="185" y="22"/>
      <point x="234" y="82" type="curve"/>
      <point x="201" y="82"/>
      <point x="234" y="82"/>
      <point x="201" y="82" type="curve"/>
      <point x="154" y="22"/>
      <point x="107" y="-39"/>
      <point x="60" y="-99" type="curve"/>
    </contour>
  </outline>
</glyph>
<glyph name="F" format="1">
  <advance width="674"/>
  <unicode hex="0046"/>
  <outline>
    <contour>
      <point x="75" y="0"/>
      <point x="75" y="22"/>
      <point x="75" y="0" type="curve"/>
      <point x="75" y="0"/>
      <point x="75" y="0"/>
      <point x="75" y="0" type="curve"/>
      <point x="75" y="22"/>
      <point x="75" y="0"/>
      <point x="75" y="22" type="curve"/>
      <point x="75" y="22"/>
      <point x="75" y="22"/>
      <point x="75" y="22" type="curve"/>
    </contour>
    <contour>
      <point x="515" y="374"/>
      <point x="493" y="374"/>
      <point x="515" y="374" type="curve"/>
      <point x="515" y="374"/>
      <point x="515" y="374"/>
      <point x="515" y="374" type="curve"/>
      <point x="493" y="374"/>
      <point x="515" y="374"/>
      <point x="493" y="374" type="curve"/>
      <point x="493" y="374"/>
      <point x="493" y="374"/>
      <point x="493" y="374" type="curve"/>
    </contour>
    <contour>
      <point x="75" y="722"/>
      <point x="75" y="700"/>
      <point x="75" y="722" type="curve"/>
      <point x="75" y="722"/>
      <point x="75" y="722"/>
      <point x="75" y="722" type="curve"/>
      <point x="75" y="700"/>
      <point x="75" y="722"/>
      <point x="75" y="700" type="curve"/>
      <point x="75" y="700"/>
      <point x="75" y="700"/>
      <point x="75" y="700" type="curve"/>
    </contour>
    <contour>
      <point x="493" y="374"/>
      <point x="515" y="374"/>
      <point x="493" y="374" type="curve"/>
      <point x="493" y="374"/>
      <point x="493" y="374"/>
      <point x="493" y="374" type="curve"/>
      <point x="515" y="374"/>
      <point x="493" y="374"/>
      <point x="515" y="374" type="curve"/>
      <point x="515" y="374"/>
      <point x="515" y="374"/>
      <point x="515" y="374" type="curve"/>
    </contour>
    <contour>
      <point x="75" y="22"/>
      <point x="75" y="0"/>
      <point x="75" y="22" type="curve"/>
      <point x="75" y="22"/>
      <point x="75" y="22"/>
      <point x="75" y="22" type="curve"/>
      <point x="75" y="0"/>
      <point x="75" y="22"/>
      <point x="75" y="0" type="curve"/>
      <point x="75" y="0"/>
      <point x="75" y="0"/>
      <point x="75" y="0" type="curve"/>
    </contour>
    <contour>
      <point x="592" y="711"/>
      <point x="614" y="711"/>
      <point x="592" y="711" type="curve"/>
      <point x="592" y="711"/>
      <point x="592" y="711"/>
      <point x="592" y="711" type="curve"/>
      <point x="614" y="711"/>
      <point x="592" y="711"/>
      <point x="614" y="711" type="curve"/>
      <point x="614" y="711"/>
      <point x="614" y="711"/>
      <point x="614" y="711" type="curve"/>
    </contour>
    <contour>
      <point x="80" y="363"/>
      <point x="80" y="385"/>
      <point x="80" y="363" type="curve"/>
      <point x="225" y="363"/>
      <point x="370" y="363"/>
      <point x="515" y="363" type="curve"/>
      <point x="515" y="385"/>
      <point x="515" y="363"/>
      <point x="515" y="385" type="curve"/>
      <point x="370" y="385"/>
      <point x="225" y="385"/>
      <point x="80" y="385" type="curve"/>
    </contour>
    <contour>
      <point x="87" y="0"/>
      <point x="63" y="0"/>
      <point x="87" y="0" type="curve"/>
      <point x="87" y="0"/>
      <point x="87" y="722"/>
      <point x="87" y="722" type="curve"/>
      <point x="63" y="722"/>
      <point x="87" y="722"/>
      <point x="63" y="722" type="curve"/>
      <point x="63" y="481"/>
      <point x="63" y="241"/>
      <point x="63" y="0" type="curve"/>
    </contour>
    <contour>
      <point x="60" y="700"/>
      <point x="60" y="722"/>
      <point x="60" y="700" type="curve"/>
      <point x="244" y="700"/>
      <point x="429" y="700"/>
      <point x="614" y="700" type="curve"/>
      <point x="614" y="722"/>
      <point x="614" y="700"/>
      <point x="614" y="722" type="curve"/>
      <point x="429" y="722"/>
      <point x="244" y="722"/>
      <point x="60" y="722" type="curve"/>
    </contour>
  </outline>
</glyph>
<glyph name="G" format="1">
  <advance width="954"/>
  <unicode hex="0047"/>
  <outline>
    <contour>
      <point x="849" y="642"/>
      <point x="871" y="642"/>
      <point x="849" y="642" type="curve"/>
      <point x="849" y="642"/>
      <point x="849" y="642"/>
      <point x="849" y="642" type="curve"/>
      <point x="871" y="642"/>
      <point x="849" y="642"/>
      <point x="871" y="642" type="curve"/>
      <point x="871" y="642"/>
      <point x="871" y="642"/>
      <point x="871" y="642" type="curve"/>
    </contour>
    <contour>
      <point x="885" y="319"/>
      <point x="885" y="297"/>
      <point x="885" y="319" type="curve"/>
      <point x="786" y="319"/>
      <point x="687" y="319"/>
      <point x="588" y="319" type="curve"/>
      <point x="588" y="297"/>
      <point x="588" y="319"/>
      <point x="588" y="297" type="curve"/>
      <point x="687" y="297"/>
      <point x="786" y="297"/>
      <point x="885" y="297" type="curve"/>
    </contour>
    <contour>
      <point x="894" y="77"/>
      <point x="872" y="77"/>
      <point x="894" y="77" type="curve"/>
      <point x="894" y="158"/>
      <point x="894" y="238"/>
      <point x="894" y="319" type="curve"/>
      <point x="872" y="319"/>
      <point x="894" y="319"/>
      <point x="872" y="319" type="curve"/>
      <point x="872" y="238"/>
      <point x="872" y="158"/>
      <point x="872" y="77" type="curve"/>
    </contour>
    <contour>
      <point x="871" y="642"/>
      <point x="859" y="624"/>
      <point x="871" y="642" type="curve"/>
      <point x="747" y="703"/>
      <point x="638" y="727"/>
      <point x="500" y="727" type="curve"/>
      <point x="240" y="727"/>
      <point x="60" y="611"/>
      <point x="60" y="365" type="curve"/>
      <point x="60" y="112"/>
      <point x="247" y="-5"/>
      <point x="515" y="-5" type="curve"/>
      <point x="663" y="-5"/>
      <point x="758" y="19"/>
      <point x="894" y="77" type="curve"/>
      <point x="882" y="93"/>
      <point x="894" y="77"/>
      <point x="882" y="93" type="curve"/>
      <point x="753" y="38"/>
      <point x="655" y="22"/>
      <point x="515" y="22" type="curve"/>
      <point x="261" y="22"/>
      <point x="84" y="129"/>
      <point x="84" y="367" type="curve"/>
      <point x="84" y="595"/>
      <point x="256" y="700"/>
      <point x="500" y="700" type="curve"/>
      <point x="633" y="700"/>
      <point x="739" y="681"/>
      <point x="859" y="624" type="curve"/>
    </contour>
  </outline>
</glyph>
<glyph name="K" format="1">
  <advance width="761"/>
  <unicode hex="004B"/>
  <outline>
    <contour>
      <point x="655" y="22"/>
      <point x="654" y="0"/>
      <point x="655" y="22" type="curve"/>
      <point x="655" y="22"/>
      <point x="655" y="22"/>
      <point x="655" y="22" type="curve"/>
      <point x="655" y="0"/>
      <point x="655" y="22"/>
      <point x="655" y="0" type="curve"/>
      <point x="654" y="0"/>
      <point x="654" y="0"/>
      <point x="654" y="0" type="curve"/>
    </contour>
    <contour>
      <point x="624" y="722"/>
      <point x="624" y="700"/>
      <point x="624" y="722" type="curve"/>
      <point x="624" y="722"/>
      <point x="624" y="722"/>
      <point x="624" y="722" type="curve"/>
      <point x="624" y="700"/>
      <point x="624" y="722"/>
      <point x="624" y="700" type="curve"/>
      <point x="624" y="700"/>
      <point x="624" y="700"/>
      <point x="624" y="700" type="curve"/>
    </contour>
    <contour>
      <point x="655" y="0"/>
      <point x="655" y="22"/>
      <point x="655" y="0" type="curve"/>
      <point x="655" y="0"/>
      <point x="655" y="0"/>
      <point x="655" y="0" type="curve"/>
      <point x="655" y="22"/>
      <point x="655" y="0"/>
      <point x="655" y="22" type="curve"/>
      <point x="655" y="22"/>
      <point x="655" y="22"/>
      <point x="655" y="22" type="curve"/>
    </contour>
    <contour>
      <point x="624" y="700"/>
      <point x="624" y="722"/>
      <point x="624" y="700" type="curve"/>
      <point x="624" y="700"/>
      <point x="624" y="700"/>
      <point x="624" y="700" type="curve"/>
      <point x="624" y="722"/>
      <point x="624" y="700"/>
      <point x="624" y="722" type="curve"/>
      <point x="624" y="722"/>
      <point x="624" y="722"/>
      <point x="624" y="722" type="curve"/>
    </contour>
    <contour>
      <point x="72" y="722"/>
      <point x="72" y="700"/>
      <point x="72" y="722" type="curve"/>
      <point x="72" y="722"/>
      <point x="72" y="722"/>
      <point x="72" y="722" type="curve"/>
      <point x="72" y="700"/>
      <point x="72" y="722"/>
      <point x="72" y="700" type="curve"/>
      <point x="72" y="700"/>
      <point x="72" y="700"/>
      <point x="72" y="700" type="curve"/>
    </contour>
    <contour>
      <point x="72" y="700"/>
      <point x="72" y="722"/>
      <point x="72" y="700" type="curve"/>
      <point x="72" y="700"/>
      <point x="72" y="700"/>
      <point x="72" y="700" type="curve"/>
      <point x="72" y="722"/>
      <point x="72" y="700"/>
      <point x="72" y="722" type="curve"/>
      <point x="72" y="722"/>
      <point x="72" y="722"/>
      <point x="72" y="722" type="curve"/>
    </contour>
    <contour>
      <point x="72" y="0"/>
      <point x="72" y="22"/>
      <point x="72" y="0" type="curve"/>
      <point x="72" y="0"/>
      <point x="72" y="0"/>
      <point x="72" y="0" type="curve"/>
      <point x="72" y="22"/>
      <point x="72" y="0"/>
      <point x="72" y="22" type="curve"/>
      <point x="72" y="22"/>
      <point x="72" y="22"/>
      <point x="72" y="22" type="curve"/>
    </contour>
    <contour>
      <point x="72" y="22"/>
      <point x="72" y="0"/>
      <point x="72" y="22" type="curve"/>
      <point x="72" y="22"/>
      <point x="72" y="22"/>
      <point x="72" y="22" type="curve"/>
      <point x="72" y="0"/>
      <point x="72" y="22"/>
      <point x="72" y="0" type="curve"/>
      <point x="72" y="0"/>
      <point x="72" y="0"/>
      <point x="72" y="0" type="curve"/>
    </contour>
    <contour>
      <point x="629" y="722"/>
      <point x="668" y="722"/>
      <point x="629" y="722" type="curve"/>
      <point x="446" y="608"/>
      <point x="264" y="494"/>
      <point x="81" y="380" type="curve"/>
      <point x="115" y="380"/>
      <point x="81" y="380"/>
      <point x="115" y="380" type="curve"/>
      <point x="300" y="494"/>
      <point x="484" y="608"/>
      <point x="668" y="722" type="curve"/>
    </contour>
    <contour>
      <point x="84" y="0"/>
      <point x="60" y="0"/>
      <point x="84" y="0" type="curve"/>
      <point x="84" y="0"/>
      <point x="84" y="722"/>
      <point x="84" y="722" type="curve"/>
      <point x="60" y="722"/>
      <point x="84" y="722"/>
      <point x="60" y="722" type="curve"/>
      <point x="60" y="481"/>
      <point x="60" y="241"/>
      <point x="60" y="0" type="curve"/>
    </contour>
    <contour>
      <point x="701" y="0"/>
      <point x="660" y="0"/>
      <point x="701" y="0" type="curve"/>
      <point x="505" y="126"/>
      <point x="311" y="254"/>
      <point x="115" y="380" type="curve"/>
      <point x="81" y="380"/>
      <point x="115" y="380"/>
      <point x="81" y="380" type="curve"/>
      <point x="274" y="253"/>
      <point x="467" y="127"/>
      <point x="660" y="0" type="curve"/>
    </contour>
  </outline>
</glyph>
<glyph name="L" format="1">
  <advance width="701"/>
  <unicode hex="004C"/>
  <outline>
    <contour>
      <point x="640" y="11"/>
      <point x="619" y="11"/>
      <point x="640" y="11" type="curve"/>
      <point x="640" y="11"/>
      <point x="640" y="11"/>
      <point x="640" y="11" type="curve"/>
      <point x="619" y="11"/>
      <point x="640" y="11"/>
      <point x="619" y="11" type="curve"/>
      <point x="619" y="11"/>
      <point x="619" y="11"/>
      <point x="619" y="11" type="curve"/>
    </contour>
    <contour>
      <point x="71" y="22"/>
      <point x="71" y="0"/>
      <point x="71" y="22" type="curve"/>
      <point x="71" y="22"/>
      <point x="71" y="22"/>
      <point x="71" y="22" type="curve"/>
      <point x="71" y="0"/>
      <point x="71" y="22"/>
      <point x="71" y="0" type="curve"/>
      <point x="71" y="0"/>
      <point x="71" y="0"/>
      <point x="71" y="0" type="curve"/>
    </contour>
    <contour>
      <point x="71" y="722"/>
      <point x="71" y="700"/>
      <point x="71" y="722" type="curve"/>
      <point x="71" y="722"/>
      <point x="71" y="722"/>
      <point x="71" y="722" type="curve"/>
      <point x="71" y="700"/>
      <point x="71" y="722"/>
      <point x="71" y="700" type="curve"/>
      <point x="71" y="700"/>
      <point x="71" y="700"/>
      <point x="71" y="700" type="curve"/>
    </contour>
    <contour>
      <point x="71" y="700"/>
      <point x="71" y="722"/>
      <point x="71" y="700" type="curve"/>
      <point x="71" y="700"/>
      <point x="71" y="700"/>
      <point x="71" y="700" type="curve"/>
      <point x="71" y="722"/>
      <point x="71" y="700"/>
      <point x="71" y="722" type="curve"/>
      <point x="71" y="722"/>
      <point x="71" y="722"/>
      <point x="71" y="722" type="curve"/>
    </contour>
    <contour>
      <point x="84" y="0"/>
      <point x="60" y="0"/>
      <point x="84" y="0" type="curve"/>
      <point x="84" y="241"/>
      <point x="84" y="481"/>
      <point x="84" y="722" type="curve"/>
      <point x="60" y="722"/>
      <point x="84" y="722"/>
      <point x="60" y="722" type="curve"/>
      <point x="60" y="481"/>
      <point x="60" y="241"/>
      <point x="60" y="0" type="curve"/>
    </contour>
    <contour>
      <point x="71" y="0"/>
      <point x="71" y="22"/>
      <point x="71" y="0" type="curve"/>
      <point x="261" y="0"/>
      <point x="451" y="0"/>
      <point x="640" y="0" type="curve"/>
      <point x="640" y="22"/>
      <point x="640" y="0"/>
      <point x="640" y="22" type="curve"/>
      <point x="451" y="22"/>
      <point x="261" y="22"/>
      <point x="71" y="22" type="curve"/>
    </contour>
  </outline>
</glyph>
<glyph name="O" format="1">
  <advance width="925"/>
  <unicode hex="004F"/>
  <outline>
    <contour>
      <point x="84" y="360"/>
      <point x="60" y="360"/>
      <point x="84" y="360" type="curve"/>
      <point x="84" y="576"/>
      <point x="236" y="700"/>
      <point x="460" y="700" type="curve"/>
      <point x="684" y="700"/>
      <point x="840" y="578"/>
      <point x="840" y="363" type="curve"/>
      <point x="840" y="147"/>
      <point x="687" y="22"/>
      <point x="463" y="22" type="curve"/>
      <point x="238" y="22"/>
      <point x="84" y="144"/>
      <point x="84" y="360" type="curve"/>
      <point x="60" y="360"/>
      <point x="84" y="360"/>
      <point x="60" y="360" type="curve"/>
      <point x="60" y="129"/>
      <point x="224" y="-5"/>
      <point x="462" y="-5" type="curve"/>
      <point x="701" y="-5"/>
      <point x="864" y="131"/>
      <point x="864" y="363" type="curve"/>
      <point x="864" y="593"/>
      <point x="700" y="727"/>
      <point x="462" y="727" type="curve"/>
      <point x="223" y="727"/>
      <point x="60" y="591"/>
      <point x="60" y="360" type="curve"/>
    </contour>
  </outline>
</glyph>
<glyph name="P" format="1">
  <advance width="635"/>
  <unicode hex="0050"/>
  <outline>
    <contour>
      <point x="73" y="722"/>
      <point x="73" y="700"/>
      <point x="73" y="722" type="curve"/>
      <point x="73" y="722"/>
      <point x="73" y="722"/>
      <point x="73" y="722" type="curve"/>
      <point x="73" y="700"/>
      <point x="73" y="722"/>
      <point x="73" y="700" type="curve"/>
      <point x="73" y="700"/>
      <point x="73" y="700"/>
      <point x="73" y="700" type="curve"/>
    </contour>
    <contour>
      <point x="73" y="22"/>
      <point x="73" y="0"/>
      <point x="73" y="22" type="curve"/>
      <point x="73" y="22"/>
      <point x="73" y="22"/>
      <point x="73" y="22" type="curve"/>
      <point x="73" y="0"/>
      <point x="73" y="22"/>
      <point x="73" y="0" type="curve"/>
      <point x="73" y="0"/>
      <point x="73" y="0"/>
      <point x="73" y="0" type="curve"/>
    </contour>
    <contour>
      <point x="73" y="0"/>
      <point x="73" y="22"/>
      <point x="73" y="0" type="curve"/>
      <point x="73" y="0"/>
      <point x="73" y="0"/>
      <point x="73" y="0" type="curve"/>
      <point x="73" y="22"/>
      <point x="73" y="0"/>
      <point x="73" y="22" type="curve"/>
      <point x="73" y="22"/>
      <point x="73" y="22"/>
      <point x="73" y="22" type="curve"/>
    </contour>
    <contour>
      <point x="72" y="326"/>
      <point x="79" y="346"/>
      <point x="72" y="326" type="curve"/>
      <point x="142" y="299"/>
      <point x="207" y="280"/>
      <point x="283" y="280" type="curve"/>
      <point x="446" y="283"/>
      <point x="574" y="347"/>
      <point x="574" y="494" type="curve"/>
      <point x="574" y="654"/>
      <point x="429" y="722"/>
      <point x="250" y="722" type="curve"/>
      <point x="192" y="722"/>
      <point x="135" y="722"/>
      <point x="78" y="722" type="curve"/>
      <point x="78" y="700"/>
      <point x="78" y="722"/>
      <point x="78" y="700" type="curve"/>
      <point x="134" y="700"/>
      <point x="190" y="700"/>
      <point x="247" y="700" type="curve"/>
      <point x="414" y="700"/>
      <point x="550" y="642"/>
      <point x="550" y="493" type="curve"/>
      <point x="550" y="360"/>
      <point x="431" y="302"/>
      <point x="285" y="302" type="curve"/>
      <point x="207" y="302"/>
      <point x="152" y="318"/>
      <point x="79" y="346" type="curve"/>
    </contour>
    <contour>
      <point x="84" y="0"/>
      <point x="60" y="0"/>
      <point x="84" y="0" type="curve"/>
      <point x="84" y="241"/>
      <point x="84" y="481"/>
      <point x="84" y="722" type="curve"/>
      <point x="60" y="722"/>
      <point x="84" y="722"/>
      <point x="60" y="722" type="curve"/>
      <point x="60" y="481"/>
      <point x="60" y="241"/>
      <point x="60" y="0" type="curve"/>
    </contour>
  </outline>
</glyph>
<glyph name="U" format="1">
  <advance width="820"/>
  <unicode hex="0055"/>
  <outline>
    <contour>
      <point x="748" y="700"/>
      <point x="748" y="722"/>
      <point x="748" y="700" type="curve"/>
      <point x="748" y="700"/>
      <point x="748" y="700"/>
      <point x="748" y="700" type="curve"/>
      <point x="748" y="722"/>
      <point x="748" y="700"/>
      <point x="748" y="722" type="curve"/>
      <point x="748" y="722"/>
      <point x="748" y="722"/>
      <point x="748" y="722" type="curve"/>
    </contour>
    <contour>
      <point x="748" y="722"/>
      <point x="748" y="700"/>
      <point x="748" y="722" type="curve"/>
      <point x="748" y="722"/>
      <point x="748" y="722"/>
      <point x="748" y="722" type="curve"/>
      <point x="748" y="700"/>
      <point x="748" y="722"/>
      <point x="748" y="700" type="curve"/>
      <point x="748" y="700"/>
      <point x="748" y="700"/>
      <point x="748" y="700" type="curve"/>
    </contour>
    <contour>
      <point x="73" y="722"/>
      <point x="73" y="700"/>
      <point x="73" y="722" type="curve"/>
      <point x="73" y="722"/>
      <point x="73" y="722"/>
      <point x="73" y="722" type="curve"/>
      <point x="73" y="700"/>
      <point x="73" y="722"/>
      <point x="73" y="700" type="curve"/>
      <point x="73" y="700"/>
      <point x="73" y="700"/>
      <point x="73" y="700" type="curve"/>
    </contour>
    <contour>
      <point x="73" y="700"/>
      <point x="73" y="722"/>
      <point x="73" y="700" type="curve"/>
      <point x="73" y="700"/>
      <point x="73" y="700"/>
      <point x="73" y="700" type="curve"/>
      <point x="73" y="722"/>
      <point x="73" y="700"/>
      <point x="73" y="722" type="curve"/>
      <point x="73" y="722"/>
      <point x="73" y="722"/>
      <point x="73" y="722" type="curve"/>
    </contour>
    <contour>
      <point x="60" y="722"/>
      <point x="84" y="722"/>
      <point x="60" y="722" type="curve"/>
      <point x="60" y="572"/>
      <point x="60" y="421"/>
      <point x="60" y="271" type="curve"/>
      <point x="60" y="69"/>
      <point x="193" y="-1"/>
      <point x="413" y="-1" type="curve"/>
      <point x="627" y="-1"/>
      <point x="759" y="67"/>
      <point x="759" y="263" type="curve"/>
      <point x="759" y="416"/>
      <point x="759" y="569"/>
      <point x="759" y="722" type="curve"/>
      <point x="735" y="722"/>
      <point x="759" y="722"/>
      <point x="735" y="722" type="curve"/>
      <point x="735" y="568"/>
      <point x="735" y="413"/>
      <point x="735" y="259" type="curve"/>
      <point x="735" y="80"/>
      <point x="612" y="23"/>
      <point x="415" y="23" type="curve"/>
      <point x="210" y="23"/>
      <point x="84" y="88"/>
      <point x="84" y="275" type="curve"/>
      <point x="84" y="424"/>
      <point x="84" y="573"/>
      <point x="84" y="722" type="curve"/>
    </contour>
  </outline>
</glyph>
<glyph name="Z" format="1">
  <advance width="906"/>
  <unicode hex="005A"/>
  <outline>
    <contour>
      <point x="112" y="711"/>
      <point x="134" y="711"/>
      <point x="112" y="711" type="curve"/>
      <point x="112" y="711"/>
      <point x="112" y="711"/>
      <point x="112" y="711" type="curve"/>
      <point x="134" y="711"/>
      <point x="112" y="711"/>
      <point x="134" y="711" type="curve"/>
      <point x="134" y="711"/>
      <point x="134" y="711"/>
      <point x="134" y="711" type="curve"/>
    </contour>
    <contour>
      <point x="846" y="11"/>
      <point x="824" y="11"/>
      <point x="846" y="11" type="curve"/>
      <point x="846" y="11"/>
      <point x="846" y="11"/>
      <point x="846" y="11" type="curve"/>
      <point x="824" y="11"/>
      <point x="846" y="11"/>
      <point x="824" y="11" type="curve"/>
      <point x="824" y="11"/>
      <point x="824" y="11"/>
      <point x="824" y="11" type="curve"/>
    </contour>
    <contour>
      <point x="112" y="700"/>
      <point x="112" y="722"/>
      <point x="112" y="700" type="curve"/>
      <point x="330" y="700"/>
      <point x="548" y="700"/>
      <point x="767" y="700" type="curve"/>
      <point x="765" y="703"/>
      <point x="762" y="704"/>
      <point x="760" y="707" type="curve"/>
      <point x="758" y="709"/>
      <point x="756" y="710"/>
      <point x="754" y="712" type="curve"/>
      <point x="751" y="709"/>
      <point x="747" y="705"/>
      <point x="744" y="701" type="curve"/>
      <point x="517" y="474"/>
      <point x="744" y="701"/>
      <point x="60" y="22" type="curve"/>
      <point x="60" y="10"/>
      <point x="60" y="22"/>
      <point x="60" y="10" type="curve"/>
      <point x="60" y="0"/>
      <point x="60" y="10"/>
      <point x="60" y="0" type="curve"/>
      <point x="65" y="0"/>
      <point x="60" y="0"/>
      <point x="65" y="0" type="curve"/>
      <point x="846" y="0"/>
      <point x="586" y="0"/>
      <point x="846" y="0" type="curve"/>
      <point x="846" y="22"/>
      <point x="846" y="0"/>
      <point x="846" y="22" type="curve"/>
      <point x="586" y="22"/>
      <point x="325" y="22"/>
      <point x="65" y="22" type="curve"/>
      <point x="67" y="20"/>
      <point x="69" y="18"/>
      <point x="71" y="16" type="curve"/>
      <point x="73" y="14"/>
      <point x="77" y="12"/>
      <point x="79" y="10" type="curve"/>
      <point x="82" y="13"/>
      <point x="86" y="17"/>
      <point x="90" y="21" type="curve"/>
      <point x="318" y="248"/>
      <point x="90" y="21"/>
      <point x="774" y="700" type="curve"/>
      <point x="774" y="712"/>
      <point x="774" y="700"/>
      <point x="774" y="712" type="curve"/>
      <point x="774" y="722"/>
      <point x="774" y="712"/>
      <point x="774" y="722" type="curve"/>
      <point x="767" y="722"/>
      <point x="774" y="722"/>
      <point x="767" y="722" type="curve"/>
      <point x="548" y="722"/>
      <point x="330" y="722"/>
      <point x="112" y="722" type="curve"/>
    </contour>
  </outline>
</glyph>
<glyph name="bracketright" format="1">
  <advance width="329"/>
  <unicode hex="005D"/>
  <outline>
    <contour>
      <point x="60" y="747"/>
      <point x="60" y="771"/>
      <point x="60" y="747" type="curve"/>
      <point x="129" y="747"/>
      <point x="198" y="747"/>
      <point x="267" y="747" type="curve"/>
      <point x="263" y="750"/>
      <point x="260" y="753"/>
      <point x="256" y="756" type="curve"/>
      <point x="252" y="759"/>
      <point x="249" y="762"/>
      <point x="245" y="765" type="curve"/>
      <point x="245" y="470"/>
      <point x="245" y="175"/>
      <point x="245" y="-120" type="curve"/>
      <point x="249" y="-117"/>
      <point x="253" y="-113"/>
      <point x="257" y="-109" type="curve"/>
      <point x="261" y="-107"/>
      <point x="264" y="-103"/>
      <point x="268" y="-100" type="curve"/>
      <point x="199" y="-100"/>
      <point x="129" y="-100"/>
      <point x="60" y="-100" type="curve"/>
      <point x="60" y="-124"/>
      <point x="60" y="-100"/>
      <point x="60" y="-124" type="curve"/>
      <point x="129" y="-124"/>
      <point x="199" y="-124"/>
      <point x="268" y="-124" type="curve"/>
      <point x="269" y="-124"/>
      <point x="268" y="-124"/>
      <point x="269" y="-124" type="curve"/>
      <point x="269" y="-120"/>
      <point x="269" y="-124"/>
      <point x="269" y="-120" type="curve"/>
      <point x="269" y="175"/>
      <point x="269" y="470"/>
      <point x="269" y="765" type="curve"/>
      <point x="269" y="771"/>
      <point x="269" y="765"/>
      <point x="269" y="771" type="curve"/>
      <point x="267" y="771"/>
      <point x="269" y="771"/>
      <point x="267" y="771" type="curve"/>
      <point x="198" y="771"/>
      <point x="129" y="771"/>
      <point x="60" y="771" type="curve"/>
    </contour>
  </outline>
</glyph>
<glyph name="a" format="1">
  <advance width="618"/>
  <unicode hex="0061"/>
  <outline>
    <contour>
      <point x="80" y="464"/>
      <point x="102" y="464"/>
      <point x="80" y="464" type="curve"/>
      <point x="80" y="464"/>
      <point x="80" y="464"/>
      <point x="80" y="464" type="curve"/>
      <point x="102" y="464"/>
      <point x="80" y="464"/>
      <point x="102" y="464" type="curve"/>
      <point x="102" y="464"/>
      <point x="102" y="464"/>
      <point x="102" y="464" type="curve"/>
    </contour>
    <contour>
      <point x="558" y="0"/>
      <point x="534" y="0"/>
      <point x="558" y="0" type="curve"/>
      <point x="558" y="130"/>
      <point x="558" y="260"/>
      <point x="558" y="390" type="curve"/>
      <point x="558" y="515"/>
      <point x="469" y="538"/>
      <point x="336" y="538" type="curve"/>
      <point x="227" y="538"/>
      <point x="147" y="508"/>
      <point x="80" y="464" type="curve"/>
      <point x="89" y="446"/>
      <point x="80" y="464"/>
      <point x="89" y="446" type="curve"/>
      <point x="152" y="485"/>
      <point x="229" y="511"/>
      <point x="333" y="511" type="curve"/>
      <point x="453" y="511"/>
      <point x="534" y="496"/>
      <point x="534" y="383" type="curve"/>
      <point x="534" y="255"/>
      <point x="534" y="128"/>
      <point x="534" y="0" type="curve"/>
    </contour>
    <contour>
      <point x="549" y="0"/>
      <point x="549" y="22"/>
      <point x="549" y="0" type="curve"/>
      <point x="549" y="0"/>
      <point x="549" y="0"/>
      <point x="549" y="0" type="curve"/>
      <point x="549" y="22"/>
      <point x="549" y="0"/>
      <point x="549" y="22" type="curve"/>
      <point x="549" y="22"/>
      <point x="549" y="22"/>
      <point x="549" y="22" type="curve"/>
    </contour>
    <contour>
      <point x="539" y="165"/>
      <point x="550" y="155"/>
      <point x="539" y="165" type="curve"/>
      <point x="455" y="82"/>
      <point x="379" y="22"/>
      <point x="262" y="22" type="curve"/>
      <point x="163" y="22"/>
      <point x="84" y="66"/>
      <point x="84" y="157" type="curve"/>
      <point x="84" y="242"/>
      <point x="168" y="264"/>
      <point x="263" y="273" type="curve"/>
      <point x="365" y="284"/>
      <point x="443" y="292"/>
      <point x="546" y="301" type="curve"/>
      <point x="545" y="320"/>
      <point x="546" y="301"/>
      <point x="545" y="320" type="curve"/>
      <point x="443" y="309"/>
      <point x="365" y="302"/>
      <point x="264" y="293" type="curve"/>
      <point x="156" y="282"/>
      <point x="60" y="252"/>
      <point x="60" y="155" type="curve"/>
      <point x="60" y="54"/>
      <point x="146" y="0"/>
      <point x="256" y="0" type="curve"/>
      <point x="381" y="0"/>
      <point x="464" y="64"/>
      <point x="550" y="155" type="curve"/>
    </contour>
  </outline>
</glyph>
<glyph name="g" format="1">
  <advance width="814"/>
  <unicode hex="0067"/>
  <outline>
    <contour>
      <point x="559" y="470"/>
      <point x="546" y="491"/>
      <point x="559" y="470" type="curve"/>
      <point x="624" y="496"/>
      <point x="689" y="522"/>
      <point x="754" y="548" type="curve"/>
      <point x="742" y="569"/>
      <point x="754" y="548"/>
      <point x="742" y="569" type="curve"/>
      <point x="677" y="543"/>
      <point x="611" y="517"/>
      <point x="546" y="491" type="curve"/>
    </contour>
    <contour>
      <point x="144" y="371"/>
      <point x="119" y="370"/>
      <point x="144" y="371" type="curve"/>
      <point x="144" y="481"/>
      <point x="247" y="526"/>
      <point x="369" y="526" type="curve"/>
      <point x="489" y="526"/>
      <point x="588" y="481"/>
      <point x="588" y="374" type="curve"/>
      <point x="588" y="266"/>
      <point x="488" y="222"/>
      <point x="366" y="222" type="curve"/>
      <point x="247" y="222"/>
      <point x="144" y="264"/>
      <point x="144" y="371" type="curve"/>
      <point x="119" y="370"/>
      <point x="144" y="371"/>
      <point x="119" y="370" type="curve"/>
      <point x="119" y="252"/>
      <point x="231" y="202"/>
      <point x="364" y="202" type="curve"/>
      <point x="500" y="202"/>
      <point x="612" y="254"/>
      <point x="612" y="375" type="curve"/>
      <point x="612" y="494"/>
      <point x="503" y="547"/>
      <point x="369" y="547" type="curve"/>
      <point x="232" y="547"/>
      <point x="119" y="493"/>
      <point x="119" y="370" type="curve"/>
    </contour>
    <contour>
      <point x="227" y="240"/>
      <point x="238" y="227"/>
      <point x="227" y="240" type="curve"/>
      <point x="169" y="217"/>
      <point x="125" y="183"/>
      <point x="125" y="123" type="curve"/>
      <point x="125" y="17"/>
      <point x="240" y="8"/>
      <point x="360" y="0" type="curve"/>
      <point x="511" y="-9"/>
      <point x="665" y="4"/>
      <point x="665" y="-131" type="curve"/>
      <point x="665" y="-263"/>
      <point x="517" y="-266"/>
      <point x="363" y="-266" type="curve"/>
      <point x="219" y="-266"/>
      <point x="84" y="-245"/>
      <point x="84" y="-121" type="curve"/>
      <point x="84" y="-39"/>
      <point x="154" y="-1"/>
      <point x="237" y="24" type="curve"/>
      <point x="225" y="37"/>
      <point x="237" y="24"/>
      <point x="225" y="37" type="curve"/>
      <point x="134" y="10"/>
      <point x="60" y="-32"/>
      <point x="60" y="-122" type="curve"/>
      <point x="60" y="-258"/>
      <point x="203" y="-286"/>
      <point x="361" y="-286" type="curve"/>
      <point x="531" y="-286"/>
      <point x="692" y="-274"/>
      <point x="689" y="-130" type="curve"/>
      <point x="689" y="13"/>
      <point x="529" y="10"/>
      <point x="367" y="20" type="curve"/>
      <point x="257" y="25"/>
      <point x="149" y="23"/>
      <point x="149" y="125" type="curve"/>
      <point x="149" y="178"/>
      <point x="188" y="205"/>
      <point x="238" y="227" type="curve"/>
    </contour>
  </outline>
</glyph>
<glyph name="i" format="1">
  <advance width="149"/>
  <unicode hex="0069"/>
  <outline>
    <contour>
      <point x="75" y="22"/>
      <point x="75" y="0"/>
      <point x="75" y="22" type="curve"/>
      <point x="75" y="22"/>
      <point x="75" y="22"/>
      <point x="75" y="22" type="curve"/>
      <point x="75" y="0"/>
      <point x="75" y="22"/>
      <point x="75" y="0" type="curve"/>
      <point x="75" y="0"/>
      <point x="75" y="0"/>
      <point x="75" y="0" type="curve"/>
    </contour>
    <contour>
      <point x="75" y="0"/>
      <point x="75" y="22"/>
      <point x="75" y="0" type="curve"/>
      <point x="75" y="0"/>
      <point x="75" y="0"/>
      <point x="75" y="0" type="curve"/>
      <point x="75" y="22"/>
      <point x="75" y="0"/>
      <point x="75" y="22" type="curve"/>
      <point x="75" y="22"/>
      <point x="75" y="22"/>
      <point x="75" y="22" type="curve"/>
    </contour>
    <contour>
      <point x="75" y="533"/>
      <point x="75" y="511"/>
      <point x="75" y="533" type="curve"/>
      <point x="75" y="533"/>
      <point x="75" y="533"/>
      <point x="75" y="533" type="curve"/>
      <point x="75" y="511"/>
      <point x="75" y="533"/>
      <point x="75" y="511" type="curve"/>
      <point x="75" y="511"/>
      <point x="75" y="511"/>
      <point x="75" y="511" type="curve"/>
    </contour>
    <contour>
      <point x="89" y="670"/>
      <point x="60" y="670"/>
      <point x="89" y="670" type="curve"/>
      <point x="89" y="679"/>
      <point x="82" y="684"/>
      <point x="72" y="684" type="curve"/>
      <point x="64" y="684"/>
      <point x="60" y="678"/>
      <point x="60" y="670" type="curve"/>
      <point x="89" y="670"/>
      <point x="60" y="670"/>
      <point x="89" y="670" type="curve"/>
      <point x="89" y="661"/>
      <point x="82" y="657"/>
      <point x="72" y="657" type="curve"/>
      <point x="64" y="657"/>
      <point x="60" y="662"/>
      <point x="60" y="670" type="curve"/>
    </contour>
    <contour>
      <point x="88" y="0"/>
      <point x="63" y="0"/>
      <point x="88" y="0" type="curve"/>
      <point x="88" y="178"/>
      <point x="88" y="355"/>
      <point x="88" y="533" type="curve"/>
      <point x="63" y="533"/>
      <point x="88" y="533"/>
      <point x="63" y="533" type="curve"/>
      <point x="63" y="355"/>
      <point x="63" y="178"/>
      <point x="63" y="0" type="curve"/>
    </contour>
  </outline>
</glyph>
<glyph name="j" format="1">
  <advance width="374"/>
  <unicode hex="006A"/>
  <outline>
    <contour>
      <point x="296" y="533"/>
      <point x="296" y="511"/>
      <point x="296" y="533" type="curve"/>
      <point x="296" y="533"/>
      <point x="296" y="533"/>
      <point x="296" y="533" type="curve"/>
      <point x="296" y="511"/>
      <point x="296" y="533"/>
      <point x="296" y="511" type="curve"/>
      <point x="296" y="511"/>
      <point x="296" y="511"/>
      <point x="296" y="511" type="curve"/>
    </contour>
    <contour>
      <point x="313" y="670"/>
      <point x="285" y="670"/>
      <point x="313" y="670" type="curve"/>
      <point x="313" y="679"/>
      <point x="307" y="684"/>
      <point x="297" y="684" type="curve"/>
      <point x="289" y="684"/>
      <point x="285" y="678"/>
      <point x="285" y="670" type="curve"/>
      <point x="313" y="670"/>
      <point x="285" y="670"/>
      <point x="313" y="670" type="curve"/>
      <point x="313" y="661"/>
      <point x="307" y="657"/>
      <point x="297" y="657" type="curve"/>
      <point x="289" y="657"/>
      <point x="285" y="662"/>
      <point x="285" y="670" type="curve"/>
    </contour>
    <contour>
      <point x="60" y="-297"/>
      <point x="63" y="-276"/>
      <point x="60" y="-297" type="curve"/>
      <point x="71" y="-297"/>
      <point x="84" y="-295"/>
      <point x="99" y="-295" type="curve"/>
      <point x="214" y="-295"/>
      <point x="309" y="-247"/>
      <point x="309" y="-142" type="curve"/>
      <point x="309" y="83"/>
      <point x="309" y="308"/>
      <point x="309" y="533" type="curve"/>
      <point x="285" y="533"/>
      <point x="309" y="533"/>
      <point x="285" y="533" type="curve"/>
      <point x="285" y="308"/>
      <point x="285" y="83"/>
      <point x="285" y="-142" type="curve"/>
      <point x="285" y="-234"/>
      <point x="202" y="-278"/>
      <point x="100" y="-278" type="curve"/>
      <point x="88" y="-278"/>
      <point x="71" y="-277"/>
      <point x="63" y="-276" type="curve"/>
    </contour>
  </outline>
</glyph>
<glyph name="k" format="1">
  <advance width="690"/>
  <unicode hex="006B"/>
  <outline>
    <contour>
      <point x="71" y="22"/>
      <point x="71" y="0"/>
      <point x="71" y="22" type="curve"/>
      <point x="71" y="22"/>
      <point x="71" y="22"/>
      <point x="71" y="22" type="curve"/>
      <point x="71" y="0"/>
      <point x="71" y="22"/>
      <point x="71" y="0" type="curve"/>
      <point x="71" y="0"/>
      <point x="71" y="0"/>
      <point x="71" y="0" type="curve"/>
    </contour>
    <contour>
      <point x="588" y="0"/>
      <point x="588" y="22"/>
      <point x="588" y="0" type="curve"/>
      <point x="588" y="0"/>
      <point x="588" y="0"/>
      <point x="588" y="0" type="curve"/>
      <point x="588" y="22"/>
      <point x="588" y="0"/>
      <point x="588" y="22" type="curve"/>
      <point x="588" y="22"/>
      <point x="588" y="22"/>
      <point x="588" y="22" type="curve"/>
    </contour>
    <contour>
      <point x="553" y="511"/>
      <point x="553" y="533"/>
      <point x="553" y="511" type="curve"/>
      <point x="553" y="511"/>
      <point x="553" y="511"/>
      <point x="553" y="511" type="curve"/>
      <point x="553" y="533"/>
      <point x="553" y="511"/>
      <point x="553" y="533" type="curve"/>
      <point x="553" y="533"/>
      <point x="553" y="533"/>
      <point x="553" y="533" type="curve"/>
    </contour>
    <contour>
      <point x="71" y="0"/>
      <point x="71" y="22"/>
      <point x="71" y="0" type="curve"/>
      <point x="71" y="0"/>
      <point x="71" y="0"/>
      <point x="71" y="0" type="curve"/>
      <point x="71" y="22"/>
      <point x="71" y="0"/>
      <point x="71" y="22" type="curve"/>
      <point x="71" y="22"/>
      <point x="71" y="22"/>
      <point x="71" y="22" type="curve"/>
    </contour>
    <contour>
      <point x="553" y="533"/>
      <point x="553" y="511"/>
      <point x="553" y="533" type="curve"/>
      <point x="553" y="533"/>
      <point x="553" y="533"/>
      <point x="553" y="533" type="curve"/>
      <point x="553" y="511"/>
      <point x="553" y="533"/>
      <point x="553" y="511" type="curve"/>
      <point x="553" y="511"/>
      <point x="553" y="511"/>
      <point x="553" y="511" type="curve"/>
    </contour>
    <contour>
      <point x="73" y="800"/>
      <point x="73" y="778"/>
      <point x="73" y="800" type="curve"/>
      <point x="73" y="800"/>
      <point x="73" y="800"/>
      <point x="73" y="800" type="curve"/>
      <point x="73" y="778"/>
      <point x="73" y="800"/>
      <point x="73" y="778" type="curve"/>
      <point x="73" y="778"/>
      <point x="73" y="778"/>
      <point x="73" y="778" type="curve"/>
    </contour>
    <contour>
      <point x="84" y="0"/>
      <point x="60" y="0"/>
      <point x="84" y="0" type="curve"/>
      <point x="84" y="0"/>
      <point x="84" y="800"/>
      <point x="84" y="800" type="curve"/>
      <point x="60" y="800"/>
      <point x="84" y="800"/>
      <point x="60" y="800" type="curve"/>
      <point x="60" y="533"/>
      <point x="60" y="267"/>
      <point x="60" y="0" type="curve"/>
    </contour>
    <contour>
      <point x="557" y="533"/>
      <point x="594" y="533"/>
      <point x="557" y="533" type="curve"/>
      <point x="399" y="447"/>
      <point x="241" y="361"/>
      <point x="83" y="275" type="curve"/>
      <point x="120" y="275"/>
      <point x="83" y="275"/>
      <point x="120" y="275" type="curve"/>
      <point x="278" y="361"/>
      <point x="436" y="447"/>
      <point x="594" y="533" type="curve"/>
    </contour>
    <contour>
      <point x="629" y="0"/>
      <point x="592" y="0"/>
      <point x="629" y="0" type="curve"/>
      <point x="460" y="92"/>
      <point x="290" y="183"/>
      <point x="120" y="275" type="curve"/>
      <point x="83" y="275"/>
      <point x="120" y="275"/>
      <point x="83" y="275" type="curve"/>
      <point x="253" y="183"/>
      <point x="422" y="92"/>
      <point x="592" y="0" type="curve"/>
    </contour>
  </outline>
</glyph>
<glyph name="l" format="1">
  <advance width="144"/>
  <unicode hex="006C"/>
  <outline>
    <contour>
      <point x="73" y="22"/>
      <point x="73" y="0"/>
      <point x="73" y="22" type="curve"/>
      <point x="73" y="22"/>
      <point x="73" y="22"/>
      <point x="73" y="22" type="curve"/>
      <point x="73" y="0"/>
      <point x="73" y="22"/>
      <point x="73" y="0" type="curve"/>
      <point x="73" y="0"/>
      <point x="73" y="0"/>
      <point x="73" y="0" type="curve"/>
    </contour>
    <contour>
      <point x="76" y="800"/>
      <point x="76" y="778"/>
      <point x="76" y="800" type="curve"/>
      <point x="76" y="800"/>
      <point x="76" y="800"/>
      <point x="76" y="800" type="curve"/>
      <point x="76" y="778"/>
      <point x="76" y="800"/>
      <point x="76" y="778" type="curve"/>
      <point x="76" y="778"/>
      <point x="76" y="778"/>
      <point x="76" y="778" type="curve"/>
    </contour>
    <contour>
      <point x="73" y="0"/>
      <point x="73" y="22"/>
      <point x="73" y="0" type="curve"/>
      <point x="73" y="0"/>
      <point x="73" y="0"/>
      <point x="73" y="0" type="curve"/>
      <point x="73" y="22"/>
      <point x="73" y="0"/>
      <point x="73" y="22" type="curve"/>
      <point x="73" y="22"/>
      <point x="73" y="22"/>
      <point x="73" y="22" type="curve"/>
    </contour>
    <contour>
      <point x="84" y="0"/>
      <point x="60" y="0"/>
      <point x="84" y="0" type="curve"/>
      <point x="84" y="267"/>
      <point x="84" y="533"/>
      <point x="84" y="800" type="curve"/>
      <point x="60" y="800"/>
      <point x="84" y="800"/>
      <point x="60" y="800" type="curve"/>
      <point x="60" y="533"/>
      <point x="60" y="267"/>
      <point x="60" y="0" type="curve"/>
    </contour>
  </outline>
</glyph>
<glyph name="m" format="1">
  <advance width="1041"/>
  <unicode hex="006D"/>
  <outline>
    <contour>
      <point x="520" y="0"/>
      <point x="520" y="22"/>
      <point x="520" y="0" type="curve"/>
      <point x="520" y="0"/>
      <point x="520" y="0"/>
      <point x="520" y="0" type="curve"/>
      <point x="520" y="22"/>
      <point x="520" y="0"/>
      <point x="520" y="22" type="curve"/>
      <point x="520" y="22"/>
      <point x="520" y="22"/>
      <point x="520" y="22" type="curve"/>
    </contour>
    <contour>
      <point x="520" y="22"/>
      <point x="520" y="0"/>
      <point x="520" y="22" type="curve"/>
      <point x="520" y="22"/>
      <point x="520" y="22"/>
      <point x="520" y="22" type="curve"/>
      <point x="520" y="0"/>
      <point x="520" y="22"/>
      <point x="520" y="0" type="curve"/>
      <point x="520" y="0"/>
      <point x="520" y="0"/>
      <point x="520" y="0" type="curve"/>
    </contour>
    <contour>
      <point x="970" y="0"/>
      <point x="970" y="22"/>
      <point x="970" y="0" type="curve"/>
      <point x="970" y="0"/>
      <point x="970" y="0"/>
      <point x="970" y="0" type="curve"/>
      <point x="970" y="22"/>
      <point x="970" y="0"/>
      <point x="970" y="22" type="curve"/>
      <point x="970" y="22"/>
      <point x="970" y="22"/>
      <point x="970" y="22" type="curve"/>
    </contour>
    <contour>
      <point x="72" y="22"/>
      <point x="72" y="0"/>
      <point x="72" y="22" type="curve"/>
      <point x="72" y="22"/>
      <point x="72" y="22"/>
      <point x="72" y="22" type="curve"/>
      <point x="72" y="0"/>
      <point x="72" y="22"/>
      <point x="72" y="0" type="curve"/>
      <point x="72" y="0"/>
      <point x="72" y="0"/>
      <point x="72" y="0" type="curve"/>
    </contour>
    <contour>
      <point x="72" y="0"/>
      <point x="72" y="22"/>
      <point x="72" y="0" type="curve"/>
      <point x="72" y="0"/>
      <point x="72" y="0"/>
      <point x="72" y="0" type="curve"/>
      <point x="72" y="22"/>
      <point x="72" y="0"/>
      <point x="72" y="22" type="curve"/>
      <point x="72" y="22"/>
      <point x="72" y="22"/>
      <point x="72" y="22" type="curve"/>
    </contour>
    <contour>
      <point x="72" y="533"/>
      <point x="72" y="511"/>
      <point x="72" y="533" type="curve"/>
      <point x="72" y="533"/>
      <point x="72" y="533"/>
      <point x="72" y="533" type="curve"/>
      <point x="72" y="511"/>
      <point x="72" y="533"/>
      <point x="72" y="511" type="curve"/>
      <point x="72" y="511"/>
      <point x="72" y="511"/>
      <point x="72" y="511" type="curve"/>
    </contour>
    <contour>
      <point x="970" y="22"/>
      <point x="970" y="0"/>
      <point x="970" y="22" type="curve"/>
      <point x="970" y="22"/>
      <point x="970" y="22"/>
      <point x="970" y="22" type="curve"/>
      <point x="970" y="0"/>
      <point x="970" y="22"/>
      <point x="970" y="0" type="curve"/>
      <point x="970" y="0"/>
      <point x="970" y="0"/>
      <point x="970" y="0" type="curve"/>
    </contour>
    <contour>
      <point x="527" y="354"/>
      <point x="515" y="365"/>
      <point x="527" y="354" type="curve"/>
      <point x="576" y="455"/>
      <point x="663" y="511"/>
      <point x="775" y="511" type="curve"/>
      <point x="897" y="511"/>
      <point x="956" y="460"/>
      <point x="956" y="341" type="curve"/>
      <point x="956" y="228"/>
      <point x="956" y="114"/>
      <point x="956" y="0" type="curve"/>
      <point x="981" y="0"/>
      <point x="956" y="0"/>
      <point x="981" y="0" type="curve"/>
      <point x="981" y="115"/>
      <point x="981" y="229"/>
      <point x="981" y="344" type="curve"/>
      <point x="981" y="475"/>
      <point x="915" y="533"/>
      <point x="780" y="533" type="curve"/>
      <point x="658" y="533"/>
      <point x="559" y="477"/>
      <point x="515" y="365" type="curve"/>
    </contour>
    <contour>
      <point x="79" y="354"/>
      <point x="67" y="365"/>
      <point x="79" y="354" type="curve"/>
      <point x="129" y="456"/>
      <point x="213" y="511"/>
      <point x="326" y="511" type="curve"/>
      <point x="447" y="511"/>
      <point x="508" y="460"/>
      <point x="508" y="341" type="curve"/>
      <point x="508" y="228"/>
      <point x="508" y="114"/>
      <point x="508" y="0" type="curve"/>
      <point x="532" y="0"/>
      <point x="508" y="0"/>
      <point x="532" y="0" type="curve"/>
      <point x="532" y="115"/>
      <point x="532" y="229"/>
      <point x="532" y="344" type="curve"/>
      <point x="532" y="475"/>
      <point x="467" y="533"/>
      <point x="332" y="533" type="curve"/>
      <point x="209" y="533"/>
      <point x="112" y="478"/>
      <point x="67" y="365" type="curve"/>
    </contour>
    <contour>
      <point x="84" y="0"/>
      <point x="60" y="0"/>
      <point x="84" y="0" type="curve"/>
      <point x="84" y="178"/>
      <point x="84" y="355"/>
      <point x="84" y="533" type="curve"/>
      <point x="60" y="533"/>
      <point x="84" y="533"/>
      <point x="60" y="533" type="curve"/>
      <point x="60" y="355"/>
      <point x="60" y="178"/>
      <point x="60" y="0" type="curve"/>
    </contour>
  </outline>
</glyph>
<glyph name="o" format="1">
  <advance width="726"/>
  <unicode hex="006F"/>
  <outline>
    <contour>
      <point x="84" y="269"/>
      <point x="60" y="268"/>
      <point x="84" y="269" type="curve"/>
      <point x="84" y="427"/>
      <point x="194" y="511"/>
      <point x="358" y="511" type="curve"/>
      <point x="527" y="511"/>
      <point x="642" y="427"/>
      <point x="642" y="265" type="curve"/>
      <point x="642" y="106"/>
      <point x="530" y="22"/>
      <point x="364" y="22" type="curve"/>
      <point x="195" y="22"/>
      <point x="84" y="108"/>
      <point x="84" y="269" type="curve"/>
      <point x="60" y="268"/>
      <point x="84" y="269"/>
      <point x="60" y="268" type="curve"/>
      <point x="60" y="92"/>
      <point x="180" y="-5"/>
      <point x="362" y="-5" type="curve"/>
      <point x="545" y="-5"/>
      <point x="666" y="89"/>
      <point x="666" y="265" type="curve"/>
      <point x="666" y="442"/>
      <point x="543" y="538"/>
      <point x="359" y="538" type="curve"/>
      <point x="178" y="538"/>
      <point x="60" y="442"/>
      <point x="60" y="268" type="curve"/>
    </contour>
  </outline>
</glyph>
<glyph name="s" format="1">
  <advance width="601"/>
  <unicode hex="0073"/>
  <outline>
    <contour>
      <point x="62" y="51"/>
      <point x="74" y="70"/>
      <point x="62" y="51" type="curve"/>
      <point x="151" y="17"/>
      <point x="235" y="0"/>
      <point x="326" y="0" type="curve"/>
      <point x="449" y="0"/>
      <point x="541" y="32"/>
      <point x="541" y="140" type="curve"/>
      <point x="540" y="253"/>
      <point x="434" y="259"/>
      <point x="315" y="287" type="curve"/>
      <point x="220" y="309"/>
      <point x="137" y="323"/>
      <point x="137" y="414" type="curve"/>
      <point x="137" y="495"/>
      <point x="208" y="511"/>
      <point x="301" y="511" type="curve"/>
      <point x="370" y="511"/>
      <point x="455" y="494"/>
      <point x="502" y="471" type="curve"/>
      <point x="513" y="490"/>
      <point x="502" y="471"/>
      <point x="513" y="490" type="curve"/>
      <point x="464" y="514"/>
      <point x="374" y="533"/>
      <point x="302" y="533" type="curve"/>
      <point x="195" y="533"/>
      <point x="115" y="507"/>
      <point x="115" y="414" type="curve"/>
      <point x="115" y="313"/>
      <point x="201" y="291"/>
      <point x="307" y="266" type="curve"/>
      <point x="415" y="239"/>
      <point x="518" y="245"/>
      <point x="518" y="140" type="curve"/>
      <point x="518" y="47"/>
      <point x="435" y="22"/>
      <point x="329" y="22" type="curve"/>
      <point x="240" y="22"/>
      <point x="161" y="37"/>
      <point x="74" y="70" type="curve"/>
    </contour>
    <contour>
      <point x="491" y="490"/>
      <point x="513" y="490"/>
      <point x="491" y="490" type="curve"/>
      <point x="491" y="490"/>
      <point x="491" y="490"/>
      <point x="491" y="490" type="curve"/>
      <point x="513" y="490"/>
      <point x="491" y="490"/>
      <point x="513" y="490" type="curve"/>
      <point x="513" y="490"/>
      <point x="513" y="490"/>
      <point x="513" y="490" type="curve"/>
    </contour>
    <contour>
      <point x="82" y="51"/>
      <point x="60" y="51"/>
      <point x="82" y="51" type="curve"/>
      <point x="82" y="51"/>
      <point x="82" y="51"/>
      <point x="82" y="51" type="curve"/>
      <point x="60" y="51"/>
      <point x="82" y="51"/>
      <point x="60" y="51" type="curve"/>
      <point x="60" y="51"/>
      <point x="60" y="51"/>
      <point x="60" y="51" type="curve"/>
    </contour>
  </outline>
</glyph>
<glyph name="w" format="1">
  <advance width="1173"/>
  <unicode hex="0077"/>
  <outline>
    <contour>
      <point x="594" y="533"/>
      <point x="594" y="511"/>
      <point x="594" y="533" type="curve"/>
      <point x="594" y="533"/>
      <point x="594" y="533"/>
      <point x="594" y="533" type="curve"/>
      <point x="594" y="511"/>
      <point x="594" y="533"/>
      <point x="594" y="511" type="curve"/>
      <point x="594" y="511"/>
      <point x="594" y="511"/>
      <point x="594" y="511" type="curve"/>
    </contour>
    <contour>
      <point x="594" y="511"/>
      <point x="594" y="533"/>
      <point x="594" y="511" type="curve"/>
      <point x="594" y="511"/>
      <point x="594" y="511"/>
      <point x="594" y="511" type="curve"/>
      <point x="594" y="533"/>
      <point x="594" y="511"/>
      <point x="594" y="533" type="curve"/>
      <point x="594" y="533"/>
      <point x="594" y="533"/>
      <point x="594" y="533" type="curve"/>
    </contour>
    <contour>
      <point x="1082" y="511"/>
      <point x="1082" y="533"/>
      <point x="1082" y="511" type="curve"/>
      <point x="1082" y="511"/>
      <point x="1082" y="511"/>
      <point x="1082" y="511" type="curve"/>
      <point x="1082" y="533"/>
      <point x="1082" y="511"/>
      <point x="1082" y="533" type="curve"/>
      <point x="1082" y="533"/>
      <point x="1082" y="533"/>
      <point x="1082" y="533" type="curve"/>
    </contour>
    <contour>
      <point x="1082" y="533"/>
      <point x="1082" y="511"/>
      <point x="1082" y="533" type="curve"/>
      <point x="1082" y="533"/>
      <point x="1082" y="533"/>
      <point x="1082" y="533" type="curve"/>
      <point x="1082" y="511"/>
      <point x="1082" y="533"/>
      <point x="1082" y="511" type="curve"/>
      <point x="1082" y="511"/>
      <point x="1082" y="511"/>
      <point x="1082" y="511" type="curve"/>
    </contour>
    <contour>
      <point x="90" y="533"/>
      <point x="90" y="511"/>
      <point x="90" y="533" type="curve"/>
      <point x="90" y="533"/>
      <point x="90" y="533"/>
      <point x="90" y="533" type="curve"/>
      <point x="90" y="511"/>
      <point x="90" y="533"/>
      <point x="90" y="511" type="curve"/>
      <point x="90" y="511"/>
      <point x="90" y="511"/>
      <point x="90" y="511" type="curve"/>
    </contour>
    <contour>
      <point x="90" y="511"/>
      <point x="90" y="533"/>
      <point x="90" y="511" type="curve"/>
      <point x="90" y="511"/>
      <point x="90" y="511"/>
      <point x="90" y="511" type="curve"/>
      <point x="90" y="533"/>
      <point x="90" y="511"/>
      <point x="90" y="533" type="curve"/>
      <point x="90" y="533"/>
      <point x="90" y="533"/>
      <point x="90" y="533" type="curve"/>
    </contour>
    <contour>
      <point x="330" y="0"/>
      <point x="307" y="0"/>
      <point x="330" y="0" type="curve"/>
      <point x="421" y="178"/>
      <point x="512" y="355"/>
      <point x="603" y="533" type="curve"/>
      <point x="577" y="533"/>
      <point x="603" y="533"/>
      <point x="577" y="533" type="curve"/>
      <point x="487" y="355"/>
      <point x="397" y="178"/>
      <point x="307" y="0" type="curve"/>
    </contour>
    <contour>
      <point x="1086" y="533"/>
      <point x="1112" y="533"/>
      <point x="1086" y="533" type="curve"/>
      <point x="1002" y="355"/>
      <point x="918" y="178"/>
      <point x="833" y="0" type="curve"/>
      <point x="856" y="0"/>
      <point x="833" y="0"/>
      <point x="856" y="0" type="curve"/>
      <point x="942" y="178"/>
      <point x="1027" y="355"/>
      <point x="1112" y="533" type="curve"/>
    </contour>
    <contour>
      <point x="585" y="533"/>
      <point x="610" y="533"/>
      <point x="585" y="533" type="curve"/>
      <point x="667" y="355"/>
      <point x="750" y="178"/>
      <point x="832" y="0" type="curve"/>
      <point x="855" y="0"/>
      <point x="832" y="0"/>
      <point x="855" y="0" type="curve"/>
      <point x="774" y="178"/>
      <point x="692" y="355"/>
      <point x="610" y="533" type="curve"/>
    </contour>
    <contour>
      <point x="60" y="533"/>
      <point x="85" y="533"/>
      <point x="60" y="533" type="curve"/>
      <point x="142" y="355"/>
      <point x="224" y="178"/>
      <point x="305" y="0" type="curve"/>
      <point x="329" y="0"/>
      <point x="305" y="0"/>
      <point x="329" y="0" type="curve"/>
      <point x="247" y="178"/>
      <point x="166" y="355"/>
      <point x="85" y="533" type="curve"/>
    </contour>
  </outline>
</glyph>
<glyph name="x" format="1">
  <advance width="741"/>
  <unicode hex="0078"/>
  <outline>
    <contour>
      <point x="91" y="22"/>
      <point x="91" y="0"/>
      <point x="91" y="22" type="curve"/>
      <point x="91" y="22"/>
      <point x="91" y="22"/>
      <point x="91" y="22" type="curve"/>
      <point x="91" y="0"/>
      <point x="91" y="22"/>
      <point x="91" y="0" type="curve"/>
      <point x="91" y="0"/>
      <point x="91" y="0"/>
      <point x="91" y="0" type="curve"/>
    </contour>
    <contour>
      <point x="648" y="22"/>
      <point x="648" y="0"/>
      <point x="648" y="22" type="curve"/>
      <point x="648" y="22"/>
      <point x="648" y="22"/>
      <point x="648" y="22" type="curve"/>
      <point x="648" y="0"/>
      <point x="648" y="22"/>
      <point x="648" y="0" type="curve"/>
      <point x="648" y="0"/>
      <point x="648" y="0"/>
      <point x="648" y="0" type="curve"/>
    </contour>
    <contour>
      <point x="648" y="0"/>
      <point x="648" y="22"/>
      <point x="648" y="0" type="curve"/>
      <point x="648" y="0"/>
      <point x="648" y="0"/>
      <point x="648" y="0" type="curve"/>
      <point x="648" y="22"/>
      <point x="648" y="0"/>
      <point x="648" y="22" type="curve"/>
      <point x="648" y="22"/>
      <point x="648" y="22"/>
      <point x="648" y="22" type="curve"/>
    </contour>
    <contour>
      <point x="91" y="0"/>
      <point x="91" y="22"/>
      <point x="91" y="0" type="curve"/>
      <point x="91" y="0"/>
      <point x="91" y="0"/>
      <point x="91" y="0" type="curve"/>
      <point x="91" y="22"/>
      <point x="91" y="0"/>
      <point x="91" y="22" type="curve"/>
      <point x="91" y="22"/>
      <point x="91" y="22"/>
      <point x="91" y="22" type="curve"/>
    </contour>
    <contour>
      <point x="626" y="511"/>
      <point x="626" y="533"/>
      <point x="626" y="511" type="curve"/>
      <point x="626" y="511"/>
      <point x="626" y="511"/>
      <point x="626" y="511" type="curve"/>
      <point x="626" y="533"/>
      <point x="626" y="511"/>
      <point x="626" y="533" type="curve"/>
      <point x="626" y="533"/>
      <point x="626" y="533"/>
      <point x="626" y="533" type="curve"/>
    </contour>
    <contour>
      <point x="118" y="533"/>
      <point x="118" y="511"/>
      <point x="118" y="533" type="curve"/>
      <point x="118" y="533"/>
      <point x="118" y="533"/>
      <point x="118" y="533" type="curve"/>
      <point x="118" y="511"/>
      <point x="118" y="533"/>
      <point x="118" y="511" type="curve"/>
      <point x="118" y="511"/>
      <point x="118" y="511"/>
      <point x="118" y="511" type="curve"/>
    </contour>
    <contour>
      <point x="118" y="511"/>
      <point x="118" y="533"/>
      <point x="118" y="511" type="curve"/>
      <point x="118" y="511"/>
      <point x="118" y="511"/>
      <point x="118" y="511" type="curve"/>
      <point x="118" y="533"/>
      <point x="118" y="511"/>
      <point x="118" y="533" type="curve"/>
      <point x="118" y="533"/>
      <point x="118" y="533"/>
      <point x="118" y="533" type="curve"/>
    </contour>
    <contour>
      <point x="626" y="533"/>
      <point x="626" y="511"/>
      <point x="626" y="533" type="curve"/>
      <point x="626" y="533"/>
      <point x="626" y="533"/>
      <point x="626" y="533" type="curve"/>
      <point x="626" y="511"/>
      <point x="626" y="533"/>
      <point x="626" y="511" type="curve"/>
      <point x="626" y="511"/>
      <point x="626" y="511"/>
      <point x="626" y="511" type="curve"/>
    </contour>
    <contour>
      <point x="680" y="0"/>
      <point x="651" y="0"/>
      <point x="680" y="0" type="curve"/>
      <point x="493" y="178"/>
      <point x="305" y="355"/>
      <point x="118" y="533" type="curve"/>
      <point x="91" y="533"/>
      <point x="118" y="533"/>
      <point x="91" y="533" type="curve"/>
      <point x="277" y="355"/>
      <point x="464" y="178"/>
      <point x="651" y="0" type="curve"/>
    </contour>
    <contour>
      <point x="629" y="533"/>
      <point x="656" y="533"/>
      <point x="629" y="533" type="curve"/>
      <point x="439" y="355"/>
      <point x="250" y="178"/>
      <point x="60" y="0" type="curve"/>
      <point x="90" y="0"/>
      <point x="60" y="0"/>
      <point x="90" y="0" type="curve"/>
      <point x="279" y="178"/>
      <point x="468" y="355"/>
      <point x="656" y="533" type="curve"/>
    </contour>
  </outline>
</glyph>
<glyph name="adeva" format="1">
  <advance width="1154"/>
  <unicode hex="0905"/>
  <outline>
    <contour>
      <point x="883" y="421"/>
      <point x="891" y="403"/>
      <point x="883" y="421" type="curve"/>
      <point x="689" y="353"/>
      <point x="536" y="367"/>
      <point x="331" y="391" type="curve"/>
      <point x="325" y="378"/>
      <point x="331" y="391"/>
      <point x="325" y="378" type="curve"/>
      <point x="537" y="349"/>
      <point x="679" y="324"/>
      <point x="891" y="403" type="curve"/>
    </contour>
    <contour>
      <point x="114" y="641"/>
      <point x="100" y="659"/>
      <point x="114" y="641" type="curve"/>
      <point x="188" y="681"/>
      <point x="248" y="700"/>
      <point x="332" y="700" type="curve"/>
      <point x="452" y="700"/>
      <point x="549" y="658"/>
      <point x="548" y="550" type="curve"/>
      <point x="546" y="412"/>
      <point x="403" y="399"/>
      <point x="243" y="399" type="curve"/>
      <point x="243" y="379"/>
      <point x="243" y="399"/>
      <point x="243" y="379" type="curve"/>
      <point x="419" y="379"/>
      <point x="572" y="401"/>
      <point x="572" y="553" type="curve"/>
      <point x="572" y="673"/>
      <point x="467" y="722"/>
      <point x="335" y="722" type="curve"/>
      <point x="244" y="722"/>
      <point x="180" y="703"/>
      <point x="100" y="659" type="curve"/>
    </contour>
    <contour>
      <point x="82" y="122"/>
      <point x="60" y="122"/>
      <point x="82" y="122" type="curve"/>
      <point x="82" y="122"/>
      <point x="82" y="122"/>
      <point x="82" y="122" type="curve"/>
      <point x="60" y="122"/>
      <point x="82" y="122"/>
      <point x="60" y="122" type="curve"/>
      <point x="60" y="122"/>
      <point x="60" y="122"/>
      <point x="60" y="122" type="curve"/>
    </contour>
    <contour>
      <point x="62" y="122"/>
      <point x="79" y="136"/>
      <point x="62" y="122" type="curve"/>
      <point x="132" y="60"/>
      <point x="223" y="32"/>
      <point x="317" y="32" type="curve"/>
      <point x="482" y="27"/>
      <point x="617" y="73"/>
      <point x="614" y="216" type="curve"/>
      <point x="610" y="384"/>
      <point x="436" y="395"/>
      <point x="243" y="395" type="curve"/>
      <point x="243" y="376"/>
      <point x="243" y="395"/>
      <point x="243" y="376" type="curve"/>
      <point x="424" y="376"/>
      <point x="586" y="371"/>
      <point x="590" y="214" type="curve"/>
      <point x="593" y="86"/>
      <point x="469" y="50"/>
      <point x="319" y="53" type="curve"/>
      <point x="229" y="53"/>
      <point x="147" y="79"/>
      <point x="79" y="136" type="curve"/>
    </contour>
    <contour>
      <point x="892" y="0"/>
      <point x="892" y="22"/>
      <point x="892" y="0" type="curve"/>
      <point x="892" y="0"/>
      <point x="892" y="0"/>
      <point x="892" y="0" type="curve"/>
      <point x="892" y="22"/>
      <point x="892" y="0"/>
      <point x="892" y="22" type="curve"/>
      <point x="892" y="22"/>
      <point x="892" y="22"/>
      <point x="892" y="22" type="curve"/>
    </contour>
    <contour>
      <point x="892" y="22"/>
      <point x="892" y="0"/>
      <point x="892" y="22" type="curve"/>
      <point x="892" y="22"/>
      <point x="892" y="22"/>
      <point x="892" y="22" type="curve"/>
      <point x="892" y="0"/>
      <point x="892" y="22"/>
      <point x="892" y="0" type="curve"/>
      <point x="892" y="0"/>
      <point x="892" y="0"/>
      <point x="892" y="0" type="curve"/>
    </contour>
    <contour>
      <point x="903" y="0"/>
      <point x="878" y="0"/>
      <point x="903" y="0" type="curve"/>
      <point x="903" y="237"/>
      <point x="903" y="473"/>
      <point x="903" y="710" type="curve"/>
      <point x="878" y="710"/>
      <point x="903" y="710"/>
      <point x="878" y="710" type="curve"/>
      <point x="878" y="473"/>
      <point x="878" y="237"/>
      <point x="878" y="0" type="curve"/>
    </contour>
    <contour>
      <point x="685" y="698"/>
      <point x="685" y="722"/>
      <point x="685" y="698" type="curve"/>
      <point x="822" y="698"/>
      <point x="958" y="698"/>
      <point x="1094" y="698" type="curve"/>
      <point x="1094" y="722"/>
      <point x="1094" y="698"/>
      <point x="1094" y="722" type="curve"/>
      <point x="958" y="722"/>
      <point x="822" y="722"/>
      <point x="685" y="722" type="curve"/>
    </contour>
  </outline>
</glyph>
<glyph name="ideva" format="1">
  <advance width="908"/>
  <unicode hex="0907"/>
  <outline>
    <contour>
      <point x="60" y="700"/>
      <point x="60" y="722"/>
      <point x="60" y="700" type="curve"/>
      <point x="323" y="700"/>
      <point x="586" y="700"/>
      <point x="848" y="700" type="curve"/>
      <point x="848" y="722"/>
      <point x="848" y="700"/>
      <point x="848" y="722" type="curve"/>
      <point x="586" y="722"/>
      <point x="323" y="722"/>
      <point x="60" y="722" type="curve"/>
    </contour>
    <contour>
      <point x="616" y="710"/>
      <point x="641" y="710"/>
      <point x="616" y="710" type="curve"/>
      <point x="616" y="648"/>
      <point x="616" y="586"/>
      <point x="616" y="525" type="curve"/>
      <point x="621" y="528"/>
      <point x="624" y="531"/>
      <point x="629" y="534" type="curve"/>
      <point x="633" y="537"/>
      <point x="636" y="541"/>
      <point x="641" y="543" type="curve"/>
      <point x="547" y="543"/>
      <point x="454" y="543"/>
      <point x="361" y="543" type="curve"/>
      <point x="237" y="543"/>
      <point x="138" y="525"/>
      <point x="138" y="417" type="curve"/>
      <point x="138" y="334"/>
      <point x="200" y="303"/>
      <point x="277" y="266" type="curve"/>
      <point x="283" y="290"/>
      <point x="277" y="266"/>
      <point x="283" y="290" type="curve"/>
      <point x="221" y="325"/>
      <point x="161" y="347"/>
      <point x="161" y="417" type="curve"/>
      <point x="161" y="512"/>
      <point x="252" y="522"/>
      <point x="361" y="522" type="curve"/>
      <point x="454" y="522"/>
      <point x="547" y="522"/>
      <point x="641" y="522" type="curve"/>
      <point x="641" y="522"/>
      <point x="641" y="522"/>
      <point x="641" y="522" type="curve"/>
      <point x="641" y="525"/>
      <point x="641" y="522"/>
      <point x="641" y="525" type="curve"/>
      <point x="641" y="586"/>
      <point x="641" y="648"/>
      <point x="641" y="710" type="curve"/>
    </contour>
    <contour>
      <point x="277" y="266"/>
      <point x="283" y="290"/>
      <point x="277" y="266" type="curve"/>
      <point x="368" y="298"/>
      <point x="427" y="309"/>
      <point x="523" y="309" type="curve"/>
      <point x="623" y="309"/>
      <point x="700" y="287"/>
      <point x="700" y="197" type="curve"/>
      <point x="700" y="67"/>
      <point x="577" y="52"/>
      <point x="426" y="52" type="curve"/>
      <point x="323" y="52"/>
      <point x="244" y="58"/>
      <point x="212" y="150" type="curve"/>
      <point x="192" y="135"/>
      <point x="212" y="150"/>
      <point x="192" y="135" type="curve"/>
      <point x="224" y="33"/>
      <point x="312" y="29"/>
      <point x="426" y="29" type="curve"/>
      <point x="591" y="29"/>
      <point x="722" y="54"/>
      <point x="722" y="197" type="curve"/>
      <point x="720" y="298"/>
      <point x="638" y="331"/>
      <point x="526" y="331" type="curve"/>
      <point x="431" y="332"/>
      <point x="372" y="321"/>
      <point x="283" y="290" type="curve"/>
    </contour>
    <contour>
      <point x="192" y="135"/>
      <point x="212" y="150"/>
      <point x="192" y="135" type="curve"/>
      <point x="296" y="43"/>
      <point x="400" y="-49"/>
      <point x="504" y="-140" type="curve"/>
      <point x="526" y="-124"/>
      <point x="504" y="-140"/>
      <point x="526" y="-124" type="curve"/>
      <point x="421" y="-33"/>
      <point x="316" y="59"/>
      <point x="212" y="150" type="curve"/>
    </contour>
  </outline>
</glyph>
<glyph name="edeva" format="1">
  <advance width="951"/>
  <unicode hex="090F"/>
  <outline>
    <contour>
      <point x="554" y="253"/>
      <point x="540" y="272"/>
      <point x="554" y="253" type="curve"/>
      <point x="669" y="307"/>
      <point x="746" y="383"/>
      <point x="746" y="509" type="curve"/>
      <point x="746" y="576"/>
      <point x="746" y="643"/>
      <point x="746" y="710" type="curve"/>
      <point x="722" y="710"/>
      <point x="746" y="710"/>
      <point x="722" y="710" type="curve"/>
      <point x="722" y="642"/>
      <point x="722" y="574"/>
      <point x="722" y="506" type="curve"/>
      <point x="722" y="390"/>
      <point x="647" y="322"/>
      <point x="540" y="272" type="curve"/>
    </contour>
    <contour>
      <point x="60" y="700"/>
      <point x="60" y="722"/>
      <point x="60" y="700" type="curve"/>
      <point x="337" y="700"/>
      <point x="614" y="700"/>
      <point x="890" y="700" type="curve"/>
      <point x="890" y="722"/>
      <point x="890" y="700"/>
      <point x="890" y="722" type="curve"/>
      <point x="614" y="722"/>
      <point x="337" y="722"/>
      <point x="60" y="722" type="curve"/>
    </contour>
    <contour>
      <point x="671" y="10"/>
      <point x="663" y="-12"/>
      <point x="671" y="10" type="curve"/>
      <point x="428" y="84"/>
      <point x="235" y="193"/>
      <point x="236" y="434" type="curve"/>
      <point x="236" y="526"/>
      <point x="236" y="618"/>
      <point x="236" y="710" type="curve"/>
      <point x="211" y="710"/>
      <point x="236" y="710"/>
      <point x="211" y="710" type="curve"/>
      <point x="211" y="617"/>
      <point x="211" y="523"/>
      <point x="211" y="430" type="curve"/>
      <point x="211" y="179"/>
      <point x="409" y="61"/>
      <point x="663" y="-12" type="curve"/>
    </contour>
  </outline>
</glyph>
<glyph name="ddhadeva" format="1">
  <advance width="1007"/>
  <unicode hex="0922"/>
  <outline>
    <contour>
      <point x="60" y="700"/>
      <point x="60" y="722"/>
      <point x="60" y="700" type="curve"/>
      <point x="356" y="700"/>
      <point x="651" y="700"/>
      <point x="947" y="700" type="curve"/>
      <point x="947" y="722"/>
      <point x="947" y="700"/>
      <point x="947" y="722" type="curve"/>
      <point x="651" y="722"/>
      <point x="356" y="722"/>
      <point x="60" y="722" type="curve"/>
    </contour>
    <contour>
      <point x="691" y="710"/>
      <point x="715" y="710"/>
      <point x="691" y="710" type="curve"/>
      <point x="691" y="648"/>
      <point x="691" y="586"/>
      <point x="691" y="525" type="curve"/>
      <point x="695" y="527"/>
      <point x="699" y="530"/>
      <point x="703" y="533" type="curve"/>
      <point x="707" y="536"/>
      <point x="711" y="541"/>
      <point x="716" y="544" type="curve"/>
      <point x="666" y="544"/>
      <point x="616" y="544"/>
      <point x="566" y="544" type="curve"/>
      <point x="349" y="544"/>
      <point x="167" y="473"/>
      <point x="167" y="280" type="curve"/>
      <point x="167" y="92"/>
      <point x="326" y="0"/>
      <point x="529" y="0" type="curve"/>
      <point x="697" y="0"/>
      <point x="850" y="28"/>
      <point x="850" y="171" type="curve"/>
      <point x="850" y="269"/>
      <point x="765" y="311"/>
      <point x="657" y="311" type="curve"/>
      <point x="550" y="311"/>
      <point x="466" y="269"/>
      <point x="466" y="171" type="curve"/>
      <point x="466" y="83"/>
      <point x="540" y="37"/>
      <point x="628" y="7" type="curve"/>
      <point x="637" y="21"/>
      <point x="628" y="7"/>
      <point x="637" y="21" type="curve"/>
      <point x="557" y="56"/>
      <point x="491" y="89"/>
      <point x="491" y="171" type="curve"/>
      <point x="491" y="254"/>
      <point x="564" y="287"/>
      <point x="655" y="287" type="curve"/>
      <point x="750" y="287"/>
      <point x="826" y="257"/>
      <point x="826" y="171" type="curve"/>
      <point x="826" y="42"/>
      <point x="681" y="22"/>
      <point x="530" y="22" type="curve"/>
      <point x="340" y="22"/>
      <point x="191" y="109"/>
      <point x="191" y="283" type="curve"/>
      <point x="191" y="460"/>
      <point x="364" y="523"/>
      <point x="566" y="523" type="curve"/>
      <point x="616" y="523"/>
      <point x="666" y="523"/>
      <point x="716" y="523" type="curve"/>
      <point x="715" y="523"/>
      <point x="716" y="523"/>
      <point x="715" y="523" type="curve"/>
      <point x="715" y="525"/>
      <point x="715" y="523"/>
      <point x="715" y="525" type="curve"/>
      <point x="715" y="586"/>
      <point x="715" y="648"/>
      <point x="715" y="710" type="curve"/>
    </contour>
  </outline>
</glyph>
<glyph name="dhadeva" format="1">
  <advance width="944"/>
  <unicode hex="0927"/>
  <outline>
    <contour>
      <point x="696" y="0"/>
      <point x="696" y="22"/>
      <point x="696" y="0" type="curve"/>
      <point x="696" y="0"/>
      <point x="696" y="0"/>
      <point x="696" y="0" type="curve"/>
      <point x="696" y="22"/>
      <point x="696" y="0"/>
      <point x="696" y="22" type="curve"/>
      <point x="696" y="22"/>
      <point x="696" y="22"/>
      <point x="696" y="22" type="curve"/>
    </contour>
    <contour>
      <point x="696" y="22"/>
      <point x="696" y="0"/>
      <point x="696" y="22" type="curve"/>
      <point x="696" y="22"/>
      <point x="696" y="22"/>
      <point x="696" y="22" type="curve"/>
      <point x="696" y="0"/>
      <point x="696" y="22"/>
      <point x="696" y="0" type="curve"/>
      <point x="696" y="0"/>
      <point x="696" y="0"/>
      <point x="696" y="0" type="curve"/>
    </contour>
    <contour>
      <point x="885" y="722"/>
      <point x="885" y="700"/>
      <point x="885" y="722" type="curve"/>
      <point x="817" y="722"/>
      <point x="749" y="722"/>
      <point x="681" y="722" type="curve"/>
      <point x="681" y="700"/>
      <point x="681" y="722"/>
      <point x="681" y="700" type="curve"/>
      <point x="749" y="700"/>
      <point x="817" y="700"/>
      <point x="885" y="700" type="curve"/>
    </contour>
    <contour>
      <point x="687" y="294"/>
      <point x="705" y="284"/>
      <point x="687" y="294" type="curve"/>
      <point x="615" y="171"/>
      <point x="505" y="133"/>
      <point x="362" y="133" type="curve"/>
      <point x="213" y="133"/>
      <point x="83" y="155"/>
      <point x="84" y="282" type="curve"/>
      <point x="86" y="426"/>
      <point x="239" y="429"/>
      <point x="407" y="429" type="curve"/>
      <point x="407" y="447"/>
      <point x="407" y="429"/>
      <point x="407" y="447" type="curve"/>
      <point x="225" y="447"/>
      <point x="60" y="437"/>
      <point x="60" y="280" type="curve"/>
      <point x="60" y="140"/>
      <point x="198" y="112"/>
      <point x="360" y="112" type="curve"/>
      <point x="513" y="112"/>
      <point x="631" y="152"/>
      <point x="705" y="284" type="curve"/>
    </contour>
    <contour>
      <point x="708" y="0"/>
      <point x="684" y="0"/>
      <point x="708" y="0" type="curve"/>
      <point x="708" y="237"/>
      <point x="708" y="473"/>
      <point x="708" y="710" type="curve"/>
      <point x="684" y="710"/>
      <point x="708" y="710"/>
      <point x="684" y="710" type="curve"/>
      <point x="684" y="473"/>
      <point x="684" y="237"/>
      <point x="684" y="0" type="curve"/>
    </contour>
    <contour>
      <point x="405" y="538"/>
      <point x="390" y="551"/>
      <point x="405" y="538" type="curve"/>
      <point x="430" y="558"/>
      <point x="442" y="580"/>
      <point x="442" y="612" type="curve"/>
      <point x="442" y="696"/>
      <point x="363" y="722"/>
      <point x="268" y="722" type="curve"/>
      <point x="160" y="722"/>
      <point x="76" y="683"/>
      <point x="76" y="585" type="curve"/>
      <point x="76" y="435"/>
      <point x="232" y="429"/>
      <point x="407" y="429" type="curve"/>
      <point x="407" y="447"/>
      <point x="407" y="429"/>
      <point x="407" y="447" type="curve"/>
      <point x="245" y="447"/>
      <point x="99" y="449"/>
      <point x="100" y="587" type="curve"/>
      <point x="102" y="669"/>
      <point x="174" y="700"/>
      <point x="265" y="700" type="curve"/>
      <point x="349" y="700"/>
      <point x="420" y="682"/>
      <point x="420" y="609" type="curve"/>
      <point x="420" y="584"/>
      <point x="407" y="569"/>
      <point x="390" y="551" type="curve"/>
    </contour>
  </outline>
</glyph>
<glyph name="uni0921094D092F" format="1">
  <advance width="1689"/>
  <unicode hex="E002"/>
  <outline>
    <contour>
      <point x="1468" y="0"/>
      <point x="1468" y="22"/>
      <point x="1468" y="0" type="curve"/>
      <point x="1468" y="0"/>
      <point x="1468" y="0"/>
      <point x="1468" y="0" type="curve"/>
      <point x="1468" y="22"/>
      <point x="1468" y="0"/>
      <point x="1468" y="22" type="curve"/>
      <point x="1468" y="22"/>
      <point x="1468" y="22"/>
      <point x="1468" y="22" type="curve"/>
    </contour>
    <contour>
      <point x="1479" y="0"/>
      <point x="1455" y="0"/>
      <point x="1479" y="0" type="curve"/>
      <point x="1479" y="237"/>
      <point x="1479" y="473"/>
      <point x="1479" y="710" type="curve"/>
      <point x="1455" y="710"/>
      <point x="1479" y="710"/>
      <point x="1455" y="710" type="curve"/>
      <point x="1455" y="473"/>
      <point x="1455" y="237"/>
      <point x="1455" y="0" type="curve"/>
    </contour>
    <contour>
      <point x="659" y="513"/>
      <point x="635" y="513"/>
      <point x="659" y="513" type="curve"/>
      <point x="659" y="579"/>
      <point x="659" y="644"/>
      <point x="659" y="710" type="curve"/>
      <point x="635" y="710"/>
      <point x="659" y="710"/>
      <point x="635" y="710" type="curve"/>
      <point x="635" y="644"/>
      <point x="635" y="579"/>
      <point x="635" y="513" type="curve"/>
    </contour>
    <contour>
      <point x="649" y="533"/>
      <point x="649" y="512"/>
      <point x="649" y="533" type="curve"/>
      <point x="561" y="533"/>
      <point x="474" y="533"/>
      <point x="387" y="533" type="curve"/>
      <point x="259" y="533"/>
      <point x="165" y="520"/>
      <point x="165" y="409" type="curve"/>
      <point x="165" y="328"/>
      <point x="224" y="291"/>
      <point x="296" y="266" type="curve"/>
      <point x="302" y="290"/>
      <point x="296" y="266"/>
      <point x="302" y="290" type="curve"/>
      <point x="246" y="313"/>
      <point x="190" y="340"/>
      <point x="190" y="409" type="curve"/>
      <point x="190" y="507"/>
      <point x="275" y="512"/>
      <point x="388" y="512" type="curve"/>
      <point x="475" y="512"/>
      <point x="562" y="512"/>
      <point x="649" y="512" type="curve"/>
    </contour>
    <contour>
      <point x="144" y="105"/>
      <point x="160" y="121"/>
      <point x="144" y="105" type="curve"/>
      <point x="250" y="31"/>
      <point x="345" y="0"/>
      <point x="477" y="0" type="curve"/>
      <point x="611" y="0"/>
      <point x="719" y="46"/>
      <point x="719" y="166" type="curve"/>
      <point x="718" y="274"/>
      <point x="623" y="318"/>
      <point x="504" y="318" type="curve"/>
      <point x="429" y="318"/>
      <point x="376" y="307"/>
      <point x="302" y="290" type="curve"/>
      <point x="296" y="266"/>
      <point x="302" y="290"/>
      <point x="296" y="266" type="curve"/>
      <point x="371" y="285"/>
      <point x="425" y="296"/>
      <point x="500" y="296" type="curve"/>
      <point x="608" y="296"/>
      <point x="696" y="261"/>
      <point x="696" y="163" type="curve"/>
      <point x="696" y="58"/>
      <point x="599" y="22"/>
      <point x="480" y="22" type="curve"/>
      <point x="354" y="22"/>
      <point x="259" y="51"/>
      <point x="160" y="121" type="curve"/>
    </contour>
    <contour>
      <point x="624" y="512"/>
      <point x="624" y="533"/>
      <point x="624" y="512" type="curve"/>
      <point x="751" y="512"/>
      <point x="830" y="512"/>
      <point x="956" y="512" type="curve"/>
      <point x="1078" y="512"/>
      <point x="1183" y="520"/>
      <point x="1183" y="415" type="curve"/>
      <point x="1183" y="301"/>
      <point x="1068" y="317"/>
      <point x="936" y="317" type="curve"/>
      <point x="932" y="317"/>
      <point x="936" y="317"/>
      <point x="932" y="317" type="curve"/>
      <point x="932" y="312"/>
      <point x="932" y="317"/>
      <point x="932" y="312" type="curve"/>
      <point x="935" y="157"/>
      <point x="1044" y="83"/>
      <point x="1209" y="83" type="curve"/>
      <point x="1333" y="83"/>
      <point x="1411" y="120"/>
      <point x="1477" y="225" type="curve"/>
      <point x="1460" y="235"/>
      <point x="1477" y="225"/>
      <point x="1460" y="235" type="curve"/>
      <point x="1399" y="138"/>
      <point x="1324" y="106"/>
      <point x="1209" y="106" type="curve"/>
      <point x="1058" y="106"/>
      <point x="957" y="171"/>
      <point x="956" y="312" type="curve"/>
      <point x="953" y="309"/>
      <point x="950" y="306"/>
      <point x="947" y="304" type="curve"/>
      <point x="943" y="301"/>
      <point x="941" y="298"/>
      <point x="937" y="295" type="curve"/>
      <point x="1083" y="295"/>
      <point x="1206" y="291"/>
      <point x="1206" y="415" type="curve"/>
      <point x="1206" y="531"/>
      <point x="1092" y="533"/>
      <point x="956" y="533" type="curve"/>
      <point x="830" y="533"/>
      <point x="751" y="533"/>
      <point x="624" y="533" type="curve"/>
    </contour>
    <contour>
      <point x="60" y="700"/>
      <point x="60" y="722"/>
      <point x="60" y="700" type="curve"/>
      <point x="583" y="700"/>
      <point x="1106" y="700"/>
      <point x="1629" y="700" type="curve"/>
      <point x="1629" y="722"/>
      <point x="1629" y="700"/>
      <point x="1629" y="722" type="curve"/>
      <point x="1106" y="722"/>
      <point x="583" y="722"/>
      <point x="60" y="722" type="curve"/>
    </contour>
  </outline>
</glyph>
<glyph name="uni0922094D0922094D092F" format="1">
  <advance width="1834"/>
  <unicode hex="E003"/>
  <outline>
    <contour>
      <point x="664" y="710"/>
      <point x="688" y="710"/>
      <point x="664" y="710" type="curve"/>
      <point x="664" y="646"/>
      <point x="664" y="581"/>
      <point x="664" y="517" type="curve"/>
      <point x="667" y="519"/>
      <point x="671" y="522"/>
      <point x="675" y="525" type="curve"/>
      <point x="678" y="528"/>
      <point x="680" y="531"/>
      <point x="684" y="533" type="curve"/>
      <point x="631" y="533"/>
      <point x="577" y="533"/>
      <point x="524" y="533" type="curve"/>
      <point x="352" y="533"/>
      <point x="207" y="519"/>
      <point x="207" y="371" type="curve"/>
      <point x="207" y="198"/>
      <point x="364" y="191"/>
      <point x="568" y="191" type="curve"/>
      <point x="692" y="191"/>
      <point x="800" y="187"/>
      <point x="800" y="293" type="curve"/>
      <point x="800" y="365"/>
      <point x="741" y="387"/>
      <point x="662" y="387" type="curve"/>
      <point x="581" y="387"/>
      <point x="520" y="365"/>
      <point x="520" y="292" type="curve"/>
      <point x="520" y="219"/>
      <point x="581" y="202"/>
      <point x="662" y="197" type="curve"/>
      <point x="665" y="209"/>
      <point x="662" y="197"/>
      <point x="665" y="209" type="curve"/>
      <point x="596" y="223"/>
      <point x="545" y="229"/>
      <point x="545" y="293" type="curve"/>
      <point x="545" y="351"/>
      <point x="596" y="368"/>
      <point x="662" y="368" type="curve"/>
      <point x="726" y="368"/>
      <point x="776" y="349"/>
      <point x="776" y="292" type="curve"/>
      <point x="776" y="199"/>
      <point x="678" y="209"/>
      <point x="570" y="209" type="curve"/>
      <point x="381" y="209"/>
      <point x="231" y="210"/>
      <point x="231" y="371" type="curve"/>
      <point x="231" y="506"/>
      <point x="367" y="511"/>
      <point x="524" y="511" type="curve"/>
      <point x="577" y="511"/>
      <point x="631" y="511"/>
      <point x="684" y="511" type="curve"/>
      <point x="688" y="511"/>
      <point x="684" y="511"/>
      <point x="688" y="511" type="curve"/>
      <point x="688" y="517"/>
      <point x="688" y="511"/>
      <point x="688" y="517" type="curve"/>
      <point x="688" y="581"/>
      <point x="688" y="646"/>
      <point x="688" y="710" type="curve"/>
    </contour>
    <contour>
      <point x="649" y="203"/>
      <point x="673" y="203"/>
      <point x="649" y="203" type="curve"/>
      <point x="649" y="144"/>
      <point x="649" y="85"/>
      <point x="649" y="26" type="curve"/>
      <point x="652" y="28"/>
      <point x="656" y="31"/>
      <point x="660" y="34" type="curve"/>
      <point x="663" y="37"/>
      <point x="666" y="41"/>
      <point x="670" y="44" type="curve"/>
      <point x="617" y="44"/>
      <point x="564" y="44"/>
      <point x="511" y="44" type="curve"/>
      <point x="337" y="44"/>
      <point x="207" y="19"/>
      <point x="207" y="-130" type="curve"/>
      <point x="207" y="-305"/>
      <point x="363" y="-320"/>
      <point x="568" y="-320" type="curve"/>
      <point x="692" y="-320"/>
      <point x="798" y="-322"/>
      <point x="798" y="-215" type="curve"/>
      <point x="798" y="-144"/>
      <point x="743" y="-119"/>
      <point x="665" y="-119" type="curve"/>
      <point x="585" y="-119"/>
      <point x="530" y="-144"/>
      <point x="530" y="-216" type="curve"/>
      <point x="530" y="-285"/>
      <point x="597" y="-309"/>
      <point x="662" y="-312" type="curve"/>
      <point x="666" y="-302"/>
      <point x="662" y="-312"/>
      <point x="666" y="-302" type="curve"/>
      <point x="606" y="-288"/>
      <point x="553" y="-275"/>
      <point x="553" y="-215" type="curve"/>
      <point x="553" y="-158"/>
      <point x="600" y="-138"/>
      <point x="664" y="-138" type="curve"/>
      <point x="727" y="-138"/>
      <point x="774" y="-158"/>
      <point x="774" y="-216" type="curve"/>
      <point x="774" y="-308"/>
      <point x="677" y="-303"/>
      <point x="570" y="-303" type="curve"/>
      <point x="379" y="-303"/>
      <point x="231" y="-292"/>
      <point x="231" y="-130" type="curve"/>
      <point x="231" y="6"/>
      <point x="351" y="21"/>
      <point x="511" y="21" type="curve"/>
      <point x="564" y="21"/>
      <point x="617" y="21"/>
      <point x="670" y="21" type="curve"/>
      <point x="673" y="21"/>
      <point x="670" y="21"/>
      <point x="673" y="21" type="curve"/>
      <point x="673" y="26"/>
      <point x="673" y="21"/>
      <point x="673" y="26" type="curve"/>
      <point x="673" y="85"/>
      <point x="673" y="144"/>
      <point x="673" y="203" type="curve"/>
    </contour>
    <contour>
      <point x="1548" y="0"/>
      <point x="1548" y="22"/>
      <point x="1548" y="0" type="curve"/>
      <point x="1548" y="0"/>
      <point x="1548" y="0"/>
      <point x="1548" y="0" type="curve"/>
      <point x="1548" y="22"/>
      <point x="1548" y="0"/>
      <point x="1548" y="22" type="curve"/>
      <point x="1548" y="22"/>
      <point x="1548" y="22"/>
      <point x="1548" y="22" type="curve"/>
    </contour>
    <contour>
      <point x="60" y="700"/>
      <point x="60" y="722"/>
      <point x="60" y="700" type="curve"/>
      <point x="631" y="700"/>
      <point x="1203" y="700"/>
      <point x="1775" y="700" type="curve"/>
      <point x="1775" y="722"/>
      <point x="1775" y="700"/>
      <point x="1775" y="722" type="curve"/>
      <point x="1203" y="722"/>
      <point x="631" y="722"/>
      <point x="60" y="722" type="curve"/>
    </contour>
    <contour>
      <point x="1560" y="0"/>
      <point x="1536" y="0"/>
      <point x="1560" y="0" type="curve"/>
      <point x="1560" y="237"/>
      <point x="1560" y="473"/>
      <point x="1560" y="710" type="curve"/>
      <point x="1536" y="710"/>
      <point x="1560" y="710"/>
      <point x="1536" y="710" type="curve"/>
      <point x="1536" y="473"/>
      <point x="1536" y="237"/>
      <point x="1536" y="0" type="curve"/>
    </contour>
    <contour>
      <point x="624" y="511"/>
      <point x="624" y="533"/>
      <point x="624" y="511" type="curve"/>
      <point x="765" y="511"/>
      <point x="861" y="511"/>
      <point x="1001" y="511" type="curve"/>
      <point x="1132" y="511"/>
      <point x="1255" y="537"/>
      <point x="1255" y="422" type="curve"/>
      <point x="1255" y="309"/>
      <point x="1137" y="330"/>
      <point x="1008" y="330" type="curve"/>
      <point x="1005" y="330"/>
      <point x="1008" y="330"/>
      <point x="1005" y="330" type="curve"/>
      <point x="1005" y="326"/>
      <point x="1005" y="330"/>
      <point x="1005" y="326" type="curve"/>
      <point x="1006" y="166"/>
      <point x="1127" y="91"/>
      <point x="1299" y="91" type="curve"/>
      <point x="1417" y="91"/>
      <point x="1496" y="123"/>
      <point x="1558" y="223" type="curve"/>
      <point x="1540" y="233"/>
      <point x="1558" y="223"/>
      <point x="1540" y="233" type="curve"/>
      <point x="1480" y="141"/>
      <point x="1410" y="114"/>
      <point x="1299" y="114" type="curve"/>
      <point x="1141" y="114"/>
      <point x="1029" y="182"/>
      <point x="1029" y="327" type="curve"/>
      <point x="1025" y="324"/>
      <point x="1022" y="321"/>
      <point x="1018" y="318" type="curve"/>
      <point x="1014" y="314"/>
      <point x="1011" y="310"/>
      <point x="1008" y="307" type="curve"/>
      <point x="1153" y="307"/>
      <point x="1279" y="298"/>
      <point x="1279" y="423" type="curve"/>
      <point x="1279" y="550"/>
      <point x="1148" y="533"/>
      <point x="1001" y="533" type="curve"/>
      <point x="861" y="533"/>
      <point x="765" y="533"/>
      <point x="624" y="533" type="curve"/>
    </contour>
  </outline>
</glyph>
